<svg version="1.1" viewBox="0.0 0.0 100.0 100.0" fill="none" stroke="none" stroke-linecap="square" stroke-miterlimit="10" xmlns:xlink="http://www.w3.org/1999/xlink" xmlns="http://www.w3.org/2000/svg"><clipPath id="p.0"><path d="m0 0l100.0 0l0 100.0l-100.0 0l0 -100.0z" clip-rule="nonzero"/></clipPath><g clip-path="url(#p.0)"><path fill="#000000" fill-opacity="0.0" d="m0 0l100.0 0l0 100.0l-100.0 0z" fill-rule="evenodd"/><path fill="#cdcdcd" d="m23.653543 8.882178l52.692917 0l0 66.42519l-52.692917 0z" fill-rule="evenodd"/><path stroke="#cdcdcd" stroke-width="11.417322834645669" stroke-linejoin="round" stroke-linecap="butt" d="m23.653543 8.882178l52.692917 0l0 66.42519l-52.692917 0z" fill-rule="evenodd"/><path fill="#845ec2" d="m-41.377953 0l8.881889 0l0 8.881889l-8.881889 0z" fill-rule="evenodd"/><path fill="#ff9671" d="m-32.496063 0l8.881889 0l0 8.881889l-8.881889 0z" fill-rule="evenodd"/><path fill="#c34a36" d="m-41.377953 8.881889l8.881889 0l0 8.881889l-8.881889 0z" fill-rule="evenodd"/><path fill="#ff8066" d="m-32.496063 8.881889l8.881889 0l0 8.881889l-8.881889 0z" fill-rule="evenodd"/><path fill="#ff6f91" d="m-14.732284 0l8.881889 0l0 8.881889l-8.881889 0z" fill-rule="evenodd"/><path fill="#ffc75f" d="m-23.614174 0l8.88189 0l0 8.881889l-8.88189 0z" fill-rule="evenodd"/><path fill="#008f7a" d="m-59.14173 0l8.881889 0l0 8.881889l-8.881889 0z" fill-rule="evenodd"/><path fill="#4b4453" d="m-41.377953 17.763779l8.881889 0l0 8.881891l-8.881889 0z" fill-rule="evenodd"/><path fill="#b0a8b9" d="m-32.496063 17.763779l8.881889 0l0 8.881891l-8.881889 0z" fill-rule="evenodd"/><path fill="#27252a" d="m-50.259842 17.763779l8.881889 0l0 8.881891l-8.881889 0z" fill-rule="evenodd"/><path fill="#4e8397" d="m-50.259842 0l8.881889 0l0 8.881889l-8.881889 0z" fill-rule="evenodd"/><path fill="#ffffff" d="m44.28674 54.629684l0 0l0 0c2.5185127 0 4.933872 1.0004768 6.7147293 2.781334c1.7808571 1.7808571 2.781334 4.1962166 2.781334 6.7147293l0 16.992126c0 8.392334E-5 -7.247925E-5 1.6021729E-4 -1.6021729E-4 1.6021729E-4l-18.991966 -1.6021729E-4l0 0c-8.773804E-5 0 -1.6021729E-4 -6.866455E-5 -1.6021729E-4 -1.6021729E-4l1.6021729E-4 -16.991966l0 0c0 -5.2445297 4.2515297 -9.496063 9.496063 -9.496063z" fill-rule="evenodd"/><path fill="#ffffff" d="m66.2865 39.512196l0 0l0 0c1.43676 0 2.814682 0.5707512 3.8306274 1.5866966c1.0159454 1.0159454 1.5866928 2.3938637 1.5866928 3.8306274l0 9.700787c0 4.9591064E-5 -3.8146973E-5 9.1552734E-5 -9.1552734E-5 9.1552734E-5l-10.834553 -9.1552734E-5l0 0c-4.9591064E-5 0 -9.1552734E-5 -4.196167E-5 -9.1552734E-5 -9.1552734E-5l9.1552734E-5 -9.700695l0 0c0 -2.9919052 2.4254189 -5.417324 5.417324 -5.417324z" fill-rule="evenodd"/><path stroke="#ffffff" stroke-width="3.0" stroke-linejoin="round" stroke-linecap="butt" d="m66.2865 39.512196l0 0l0 0c1.43676 0 2.814682 0.5707512 3.8306274 1.5866966c1.0159454 1.0159454 1.5866928 2.3938637 1.5866928 3.8306274l0 9.700787c0 4.9591064E-5 -3.8146973E-5 9.1552734E-5 -9.1552734E-5 9.1552734E-5l-10.834553 -9.1552734E-5l0 0c-4.9591064E-5 0 -9.1552734E-5 -4.196167E-5 -9.1552734E-5 -9.1552734E-5l9.1552734E-5 -9.700695l0 0c0 -2.9919052 2.4254189 -5.417324 5.417324 -5.417324z" fill-rule="evenodd"/><path fill="#ffffff" d="m66.2865 15.533194l0 0l0 0c1.43676 0 2.814682 0.5707512 3.8306274 1.5866966c1.0159454 1.0159454 1.5866928 2.3938618 1.5866928 3.8306255l0 9.7007885c0 4.9591064E-5 -3.8146973E-5 8.9645386E-5 -9.1552734E-5 8.9645386E-5l-10.834553 -8.9645386E-5l0 0c-4.9591064E-5 0 -9.1552734E-5 -4.196167E-5 -9.1552734E-5 -9.1552734E-5l9.1552734E-5 -9.700697l0 0c0 -2.9919052 2.4254189 -5.417322 5.417324 -5.417322z" fill-rule="evenodd"/><path stroke="#ffffff" stroke-width="3.0" stroke-linejoin="round" stroke-linecap="butt" d="m66.2865 15.533194l0 0l0 0c1.43676 0 2.814682 0.5707512 3.8306274 1.5866966c1.0159454 1.0159454 1.5866928 2.3938618 1.5866928 3.8306255l0 9.7007885c0 4.9591064E-5 -3.8146973E-5 8.9645386E-5 -9.1552734E-5 8.9645386E-5l-10.834553 -8.9645386E-5l0 0c-4.9591064E-5 0 -9.1552734E-5 -4.196167E-5 -9.1552734E-5 -9.1552734E-5l9.1552734E-5 -9.700697l0 0c0 -2.9919052 2.4254189 -5.417322 5.417324 -5.417322z" fill-rule="evenodd"/><path fill="#ffffff" d="m34.2865 15.533194l0 0l0 0c1.4367638 0 2.8146782 0.5707512 3.8306236 1.5866966c1.0159454 1.0159454 1.5867004 2.3938618 1.5867004 3.8306255l0 9.7007885c0 4.9591064E-5 -4.196167E-5 8.9645386E-5 -9.1552734E-5 8.9645386E-5l-10.834557 -8.9645386E-5l0 0c-4.9591064E-5 0 -8.9645386E-5 -4.196167E-5 -8.9645386E-5 -9.1552734E-5l8.9645386E-5 -9.700697l0 0c0 -2.9919052 2.4254189 -5.417322 5.417324 -5.417322z" fill-rule="evenodd"/><path stroke="#ffffff" stroke-width="3.0" stroke-linejoin="round" stroke-linecap="butt" d="m34.2865 15.533194l0 0l0 0c1.4367638 0 2.8146782 0.5707512 3.8306236 1.5866966c1.0159454 1.0159454 1.5867004 2.3938618 1.5867004 3.8306255l0 9.7007885c0 4.9591064E-5 -4.196167E-5 8.9645386E-5 -9.1552734E-5 8.9645386E-5l-10.834557 -8.9645386E-5l0 0c-4.9591064E-5 0 -8.9645386E-5 -4.196167E-5 -8.9645386E-5 -9.1552734E-5l8.9645386E-5 -9.700697l0 0c0 -2.9919052 2.4254189 -5.417322 5.417324 -5.417322z" fill-rule="evenodd"/></g></svg>