<svg version="1.1" viewBox="0.0 0.0 200.0 200.0" fill="none" stroke="none" stroke-linecap="square" stroke-miterlimit="10" xmlns:xlink="http://www.w3.org/1999/xlink" xmlns="http://www.w3.org/2000/svg"><clipPath id="p.0"><path d="m0 0l200.0 0l0 200.0l-200.0 0l0 -200.0z" clip-rule="nonzero"/></clipPath><g clip-path="url(#p.0)"><path fill="#000000" fill-opacity="0.0" d="m0 0l200.0 0l0 200.0l-200.0 0z" fill-rule="evenodd"/><path fill="#845ec2" d="m-41.377953 0l8.881889 0l0 8.881889l-8.881889 0z" fill-rule="evenodd"/><path fill="#ff9671" d="m-32.496063 0l8.881889 0l0 8.881889l-8.881889 0z" fill-rule="evenodd"/><path fill="#c34a36" d="m-41.377953 8.881889l8.881889 0l0 8.881889l-8.881889 0z" fill-rule="evenodd"/><path fill="#ff8066" d="m-32.496063 8.881889l8.881889 0l0 8.881889l-8.881889 0z" fill-rule="evenodd"/><path fill="#ff6f91" d="m-14.732284 0l8.881889 0l0 8.881889l-8.881889 0z" fill-rule="evenodd"/><path fill="#ffc75f" d="m-23.614174 0l8.88189 0l0 8.881889l-8.88189 0z" fill-rule="evenodd"/><path fill="#008f7a" d="m-59.14173 0l8.881889 0l0 8.881889l-8.881889 0z" fill-rule="evenodd"/><path fill="#4b4453" d="m-41.377953 17.763779l8.881889 0l0 8.881891l-8.881889 0z" fill-rule="evenodd"/><path fill="#b0a8b9" d="m-32.496063 17.763779l8.881889 0l0 8.881891l-8.881889 0z" fill-rule="evenodd"/><path fill="#27252a" d="m-50.259842 17.763779l8.881889 0l0 8.881891l-8.881889 0z" fill-rule="evenodd"/><path fill="#4e8397" d="m-50.259842 0l8.881889 0l0 8.881889l-8.881889 0z" fill-rule="evenodd"/><path fill="#141415" d="m-34.259842 33.76378l8.881889 0l0 8.881889l-8.881889 0z" fill-rule="evenodd"/><path fill="#4b4453" d="m10.173228 42.184124l111.41395 0l0 -34.740555l68.23959 90.31496l-68.23959 90.31496l0 -34.740555l-111.41395 0z" fill-rule="evenodd"/><path stroke="#ff9671" stroke-width="8.0" stroke-linejoin="round" stroke-linecap="butt" d="m10.173228 42.184124l111.41395 0l0 -34.740555l68.23959 90.31496l-68.23959 90.31496l0 -34.740555l-111.41395 0z" fill-rule="evenodd"/><path fill="#b0a8b9" d="m24.495562 112.68005c1.3957367 1.1635895 19.619467 4.110916 28.615255 4.1884384c8.995792 0.07751465 19.193733 -3.9558868 25.359497 -3.7233353c6.165764 0.2325592 10.200401 5.5066605 11.635101 5.11866c1.4347 -0.3880005 -2.4838638 -5.507889 -3.0269012 -7.446663c-0.5430374 -1.9387741 2.0950394 -4.147423 -0.23132324 -4.185974c-2.3263626 -0.03855896 -6.7083893 3.4120255 -13.726852 3.9546509c-7.018471 0.5426254 -20.279808 -1.0479279 -28.383938 -0.6988907c-8.104126 0.34903717 -21.636576 1.6295166 -20.240839 2.7931137z" fill-rule="evenodd"/><path stroke="#b0a8b9" stroke-width="3.7506561679790025" stroke-linejoin="round" stroke-linecap="butt" d="m24.495562 112.68005c1.3957367 1.1635895 19.619467 4.110916 28.615255 4.1884384c8.995792 0.07751465 19.193733 -3.9558868 25.359497 -3.7233353c6.165764 0.2325592 10.200401 5.5066605 11.635101 5.11866c1.4347 -0.3880005 -2.4838638 -5.507889 -3.0269012 -7.446663c-0.5430374 -1.9387741 2.0950394 -4.147423 -0.23132324 -4.185974c-2.3263626 -0.03855896 -6.7083893 3.4120255 -13.726852 3.9546509c-7.018471 0.5426254 -20.279808 -1.0479279 -28.383938 -0.6988907c-8.104126 0.34903717 -21.636576 1.6295166 -20.240839 2.7931137z" fill-rule="evenodd"/><path fill="#b0a8b9" d="m19.841553 102.209984c-1.1631813 -1.0856705 10.238543 -3.3734741 19.0793 -3.4895477c8.840755 -0.11607361 26.132622 3.0642166 33.965233 2.7931137c7.832611 -0.27111053 11.595726 -5.0399094 13.030426 -4.4197617c1.4347 0.6201401 -2.2894516 7.016411 -4.4222183 8.140625c-2.1327744 1.1242218 -2.4420319 -1.3953247 -8.37442 -1.3953247c-5.9323883 0 -18.34021 1.6668472 -27.219929 1.3953247c-8.879723 -0.2715149 -24.89521 -1.9387665 -26.058392 -3.0244293z" fill-rule="evenodd"/><path stroke="#b0a8b9" stroke-width="3.7506561679790025" stroke-linejoin="round" stroke-linecap="butt" d="m19.841553 102.209984c-1.1631813 -1.0856705 10.238543 -3.3734741 19.0793 -3.4895477c8.840755 -0.11607361 26.132622 3.0642166 33.965233 2.7931137c7.832611 -0.27111053 11.595726 -5.0399094 13.030426 -4.4197617c1.4347 0.6201401 -2.2894516 7.016411 -4.4222183 8.140625c-2.1327744 1.1242218 -2.4420319 -1.3953247 -8.37442 -1.3953247c-5.9323883 0 -18.34021 1.6668472 -27.219929 1.3953247c-8.879723 -0.2715149 -24.89521 -1.9387665 -26.058392 -3.0244293z" fill-rule="evenodd"/><path fill="#b0a8b9" d="m91.49936 108.95549c-0.46511078 1.1246262 -0.038970947 2.8312607 0.9302139 3.7233276c0.9691849 0.8920746 3.7216873 1.6680756 4.8848724 1.6291122c1.1631775 -0.038963318 2.6368484 -1.358818 2.0942154 -1.8628922c-0.5426254 -0.5040741 -4.6519012 -0.07588196 -5.3499756 -1.1615448c-0.69807434 -1.0856628 1.5880966 -4.9644394 1.1615372 -5.35244c-0.42655182 -0.3880005 -3.2557602 1.8998108 -3.7208633 3.024437z" fill-rule="evenodd"/><path stroke="#b0a8b9" stroke-width="3.7506561679790025" stroke-linejoin="round" stroke-linecap="butt" d="m91.49936 108.95549c-0.46511078 1.1246262 -0.038970947 2.8312607 0.9302139 3.7233276c0.9691849 0.8920746 3.7216873 1.6680756 4.8848724 1.6291122c1.1631775 -0.038963318 2.6368484 -1.358818 2.0942154 -1.8628922c-0.5426254 -0.5040741 -4.6519012 -0.07588196 -5.3499756 -1.1615448c-0.69807434 -1.0856628 1.5880966 -4.9644394 1.1615372 -5.35244c-0.42655182 -0.3880005 -3.2557602 1.8998108 -3.7208633 3.024437z" fill-rule="evenodd"/><path fill="#b0a8b9" d="m89.40668 99.18414c-0.81414795 1.0081406 -0.93063354 3.608078 0 3.9571152c0.9306259 0.34902954 4.0325775 -1.5913773 5.583763 -1.8628998c1.551178 -0.2715149 3.1807022 1.7070389 3.7233276 0.23378754c0.5426254 -1.473259 0.2694702 -8.336685 -0.46756744 -9.073311c-0.73703766 -0.7366257 -2.4813995 3.5293274 -3.9546585 4.653549c-1.4732513 1.1242142 -4.0707245 1.0836105 -4.884865 2.0917587z" fill-rule="evenodd"/><path stroke="#b0a8b9" stroke-width="3.7506561679790025" stroke-linejoin="round" stroke-linecap="butt" d="m89.40668 99.18414c-0.81414795 1.0081406 -0.93063354 3.608078 0 3.9571152c0.9306259 0.34902954 4.0325775 -1.5913773 5.583763 -1.8628998c1.551178 -0.2715149 3.1807022 1.7070389 3.7233276 0.23378754c0.5426254 -1.473259 0.2694702 -8.336685 -0.46756744 -9.073311c-0.73703766 -0.7366257 -2.4813995 3.5293274 -3.9546585 4.653549c-1.4732513 1.1242142 -4.0707245 1.0836105 -4.884865 2.0917587z" fill-rule="evenodd"/><path fill="#b0a8b9" d="m98.94386 106.862915c0.077926636 -0.81414795 2.172554 -5.970131 2.7931137 -5.815094c0.62055206 0.15503693 1.5897369 6.12516 0.9302139 6.745308c-0.6595154 0.6201477 -4.6543655 -2.714363 -4.887329 -3.024437c-0.23296356 -0.31007385 3.2955475 0.8149643 3.4895477 1.1640015c0.19400024 0.34903717 -2.403473 1.7443619 -2.3255463 0.93022156z" fill-rule="evenodd"/><path stroke="#b0a8b9" stroke-width="3.7506561679790025" stroke-linejoin="round" stroke-linecap="butt" d="m98.94386 106.862915c0.077926636 -0.81414795 2.172554 -5.970131 2.7931137 -5.815094c0.62055206 0.15503693 1.5897369 6.12516 0.9302139 6.745308c-0.6595154 0.6201477 -4.6543655 -2.714363 -4.887329 -3.024437c-0.23296356 -0.31007385 3.2955475 0.8149643 3.4895477 1.1640015c0.19400024 0.34903717 -2.403473 1.7443619 -2.3255463 0.93022156z" fill-rule="evenodd"/><path fill="#b0a8b9" d="m103.59802 121.75408c-0.58158875 0 1.7066345 -2.093399 4.1884384 -0.93022156c2.4818115 1.1631851 8.686134 7.521721 10.702423 7.9093094c2.0162888 0.3875885 2.5974731 -4.2655487 1.3953247 -5.583763c-1.2021408 -1.318222 -5.893837 -2.092987 -8.6082 -2.3255463c-2.714363 -0.23255157 -7.09639 0.93022156 -7.677986 0.93022156z" fill-rule="evenodd"/><path stroke="#b0a8b9" stroke-width="3.7506561679790025" stroke-linejoin="round" stroke-linecap="butt" d="m103.59802 121.75408c-0.58158875 0 1.7066345 -2.093399 4.1884384 -0.93022156c2.4818115 1.1631851 8.686134 7.521721 10.702423 7.9093094c2.0162888 0.3875885 2.5974731 -4.2655487 1.3953247 -5.583763c-1.2021408 -1.318222 -5.893837 -2.092987 -8.6082 -2.3255463c-2.714363 -0.23255157 -7.09639 0.93022156 -7.677986 0.93022156z" fill-rule="evenodd"/><path fill="#b0a8b9" d="m124.559395 124.82414c0.72473145 -0.6504898 2.4891891 0.1292038 3.789772 -0.22393799c1.3005829 -0.35314178 3.2332 -2.210701 4.0137177 -1.8948898c0.7805176 0.3158188 1.3383179 2.7865524 0.6693573 3.7897797c-0.6689453 1.0032196 -3.4009552 2.0064468 -4.683075 2.2295609c-1.2821198 0.22312927 -2.284935 -0.8539276 -3.0096664 -0.8908386c-0.7247391 -0.03691101 -1.2087097 1.1709747 -1.3387299 0.6693573c-0.13001251 -0.5016022 -0.16610718 -3.028534 0.55862427 -3.6790314z" fill-rule="evenodd"/><path stroke="#b0a8b9" stroke-width="3.7506561679790025" stroke-linejoin="round" stroke-linecap="butt" d="m124.559395 124.82414c0.72473145 -0.6504898 2.4891891 0.1292038 3.789772 -0.22393799c1.3005829 -0.35314178 3.2332 -2.210701 4.0137177 -1.8948898c0.7805176 0.3158188 1.3383179 2.7865524 0.6693573 3.7897797c-0.6689453 1.0032196 -3.4009552 2.0064468 -4.683075 2.2295609c-1.2821198 0.22312927 -2.284935 -0.8539276 -3.0096664 -0.8908386c-0.7247391 -0.03691101 -1.2087097 1.1709747 -1.3387299 0.6693573c-0.13001251 -0.5016022 -0.16610718 -3.028534 0.55862427 -3.6790314z" fill-rule="evenodd"/><path fill="#b0a8b9" d="m105.781044 115.0584c-0.5815964 0 1.7066269 -1.1662292 4.1884384 -0.518219c2.4818115 0.6480026 8.686127 4.190346 10.702423 4.406273c2.0162888 0.21592712 2.5974655 -2.3763351 1.3953247 -3.1107178c-1.2021484 -0.734375 -5.893837 -1.1660004 -8.608208 -1.2955551c-2.714363 -0.12956238 -7.09639 0.518219 -7.6779785 0.518219z" fill-rule="evenodd"/><path stroke="#b0a8b9" stroke-width="3.7506561679790025" stroke-linejoin="round" stroke-linecap="butt" d="m105.781044 115.0584c-0.5815964 0 1.7066269 -1.1662292 4.1884384 -0.518219c2.4818115 0.6480026 8.686127 4.190346 10.702423 4.406273c2.0162888 0.21592712 2.5974655 -2.3763351 1.3953247 -3.1107178c-1.2021484 -0.734375 -5.893837 -1.1660004 -8.608208 -1.2955551c-2.714363 -0.12956238 -7.09639 0.518219 -7.6779785 0.518219z" fill-rule="evenodd"/><path fill="#b0a8b9" d="m126.74276 116.76881c0.72473145 -0.36239624 2.4891891 0.07197571 3.789772 -0.12475586c1.3005829 -0.1967392 3.2332 -1.2315826 4.0137177 -1.0556412c0.7805176 0.17593384 1.3383179 1.5523834 0.6693573 2.1112823c-0.6689453 0.5588913 -3.40094 1.1177902 -4.683075 1.2420883c-1.2821198 0.124305725 -2.2849274 -0.47572327 -3.0096664 -0.49628448c-0.72473145 -0.020568848 -1.2087097 0.65234375 -1.3387299 0.37290192c-0.13001251 -0.27944946 -0.16610718 -1.6872025 0.55862427 -2.049591z" fill-rule="evenodd"/><path stroke="#b0a8b9" stroke-width="3.7506561679790025" stroke-linejoin="round" stroke-linecap="butt" d="m126.74276 116.76881c0.72473145 -0.36239624 2.4891891 0.07197571 3.789772 -0.12475586c1.3005829 -0.1967392 3.2332 -1.2315826 4.0137177 -1.0556412c0.7805176 0.17593384 1.3383179 1.5523834 0.6693573 2.1112823c-0.6689453 0.5588913 -3.40094 1.1177902 -4.683075 1.2420883c-1.2821198 0.124305725 -2.2849274 -0.47572327 -3.0096664 -0.49628448c-0.72473145 -0.020568848 -1.2087097 0.65234375 -1.3387299 0.37290192c-0.13001251 -0.27944946 -0.16610718 -1.6872025 0.55862427 -2.049591z" fill-rule="evenodd"/><path fill="#b0a8b9" d="m107.821304 108.96654c-0.55670166 0.16819763 1.228508 -1.8343811 3.8291779 -1.8070984c2.6006622 0.027275085 9.769814 2.3056335 11.774803 1.9707718c2.0049973 -0.33486176 1.6609192 -3.4832764 0.25514984 -3.9799347c-1.4057693 -0.4966507 -6.0465775 0.363945 -8.689766 0.99998474c-2.6431885 0.63603973 -6.612671 2.648079 -7.169365 2.8162766z" fill-rule="evenodd"/><path stroke="#b0a8b9" stroke-width="3.7506561679790025" stroke-linejoin="round" stroke-linecap="butt" d="m107.821304 108.96654c-0.55670166 0.16819763 1.228508 -1.8343811 3.8291779 -1.8070984c2.6006622 0.027275085 9.769814 2.3056335 11.774803 1.9707718c2.0049973 -0.33486176 1.6609192 -3.4832764 0.25514984 -3.9799347c-1.4057693 -0.4966507 -6.0465775 0.363945 -8.689766 0.99998474c-2.6431885 0.63603973 -6.612671 2.648079 -7.169365 2.8162766z" fill-rule="evenodd"/><path fill="#b0a8b9" d="m130.59663 106.94734c0.72473145 -0.43518066 2.4891815 0.08643341 3.7897644 -0.14981842c1.3005829 -0.23625183 3.2332153 -1.4789581 4.0137177 -1.2676773c0.7805176 0.21128082 1.3383179 1.8642044 0.66937256 2.5353546c-0.6689606 0.67115784 -3.4009552 1.3423157 -4.68309 1.4915848c-1.2821198 0.1492691 -2.2849274 -0.57128143 -3.0096588 -0.5959778c-0.7247467 -0.02468872 -1.2087097 0.78338623 -1.3387299 0.4478073c-0.13002014 -0.33557892 -0.16610718 -2.0260925 0.55862427 -2.4612732z" fill-rule="evenodd"/><path stroke="#b0a8b9" stroke-width="3.7506561679790025" stroke-linejoin="round" stroke-linecap="butt" d="m130.59663 106.94734c0.72473145 -0.43518066 2.4891815 0.08643341 3.7897644 -0.14981842c1.3005829 -0.23625183 3.2332153 -1.4789581 4.0137177 -1.2676773c0.7805176 0.21128082 1.3383179 1.8642044 0.66937256 2.5353546c-0.6689606 0.67115784 -3.4009552 1.3423157 -4.68309 1.4915848c-1.2821198 0.1492691 -2.2849274 -0.57128143 -3.0096588 -0.5959778c-0.7247467 -0.02468872 -1.2087097 0.78338623 -1.3387299 0.4478073c-0.13002014 -0.33557892 -0.16610718 -2.0260925 0.55862427 -2.4612732z" fill-rule="evenodd"/><path fill="#b0a8b9" d="m103.709595 98.21995c-1.5237045 0.29736328 1.7476425 1.3009949 2.0080872 2.1188278c0.26044464 0.8178406 -1.8948898 2.7139587 -0.4454193 2.7881927c1.4494629 0.07424164 5.2216034 -2.0265427 9.142212 -2.3427658c3.9206085 -0.31622314 12.189209 0.8539276 14.381454 0.4454193c2.1922455 -0.4085083 -1.023323 -1.911705 -1.2279816 -2.896469c-0.20466614 -0.9847717 2.1180115 -3.0490494 0 -3.0121307c-2.1180115 0.03691101 -8.731659 2.7504578 -12.708054 3.233612c-3.976387 0.4831543 -9.626602 -0.63204193 -11.150299 -0.33468628z" fill-rule="evenodd"/><path stroke="#b0a8b9" stroke-width="3.7506561679790025" stroke-linejoin="round" stroke-linecap="butt" d="m103.709595 98.21995c-1.5237045 0.29736328 1.7476425 1.3009949 2.0080872 2.1188278c0.26044464 0.8178406 -1.8948898 2.7139587 -0.4454193 2.7881927c1.4494629 0.07424164 5.2216034 -2.0265427 9.142212 -2.3427658c3.9206085 -0.31622314 12.189209 0.8539276 14.381454 0.4454193c2.1922455 -0.4085083 -1.023323 -1.911705 -1.2279816 -2.896469c-0.20466614 -0.9847717 2.1180115 -3.0490494 0 -3.0121307c-2.1180115 0.03691101 -8.731659 2.7504578 -12.708054 3.233612c-3.976387 0.4831543 -9.626602 -0.63204193 -11.150299 -0.33468628z" fill-rule="evenodd"/><path fill="#b0a8b9" d="m132.69606 95.32083c-1.0778809 0.7431946 -0.55740356 4.7027664 0.33467102 5.241707c0.8920746 0.5389328 2.6577606 -1.7665176 5.017761 -2.0080948c2.3600006 -0.24157715 7.9158783 1.3391418 9.142212 0.55862427c1.2263489 -0.78050995 -0.50201416 -4.7400894 -1.7841492 -5.241699c-1.2821198 -0.5016098 -3.7901764 1.990448 -5.9086 2.2320328c-2.1184082 0.24157715 -5.7240295 -1.5257568 -6.801895 -0.7825699z" fill-rule="evenodd"/><path stroke="#b0a8b9" stroke-width="3.7506561679790025" stroke-linejoin="round" stroke-linecap="butt" d="m132.69606 95.32083c-1.0778809 0.7431946 -0.55740356 4.7027664 0.33467102 5.241707c0.8920746 0.5389328 2.6577606 -1.7665176 5.017761 -2.0080948c2.3600006 -0.24157715 7.9158783 1.3391418 9.142212 0.55862427c1.2263489 -0.78050995 -0.50201416 -4.7400894 -1.7841492 -5.241699c-1.2821198 -0.5016098 -3.7901764 1.990448 -5.9086 2.2320328c-2.1184082 0.24157715 -5.7240295 -1.5257568 -6.801895 -0.7825699z" fill-rule="evenodd"/><path fill="#b0a8b9" d="m151.31541 93.760666c-0.46469116 0.29735565 1.9695435 0.9851761 2.2295685 1.7841492c0.26004028 0.79896545 -1.4125519 2.7496338 -0.6693573 3.0096664c0.7431946 0.26004028 3.8463745 -1.2821198 5.1284943 -1.4494629c1.282135 -0.16734314 2.1553345 1.3559494 2.5642548 0.4454193c0.4089203 -0.9105301 0.5951233 -5.27697 -0.11073303 -5.9086c-0.7058716 -0.63162994 -2.6007538 1.7656937 -4.124466 2.1188278c-1.5236969 0.35314178 -4.553055 -0.29735565 -5.017761 0z" fill-rule="evenodd"/><path stroke="#b0a8b9" stroke-width="3.7506561679790025" stroke-linejoin="round" stroke-linecap="butt" d="m151.31541 93.760666c-0.46469116 0.29735565 1.9695435 0.9851761 2.2295685 1.7841492c0.26004028 0.79896545 -1.4125519 2.7496338 -0.6693573 3.0096664c0.7431946 0.26004028 3.8463745 -1.2821198 5.1284943 -1.4494629c1.282135 -0.16734314 2.1553345 1.3559494 2.5642548 0.4454193c0.4089203 -0.9105301 0.5951233 -5.27697 -0.11073303 -5.9086c-0.7058716 -0.63162994 -2.6007538 1.7656937 -4.124466 2.1188278c-1.5236969 0.35314178 -4.553055 -0.29735565 -5.017761 0z" fill-rule="evenodd"/><path fill="#b0a8b9" d="m165.91956 93.76112c-1.765274 0.03691101 -2.3230743 3.1027756 -0.6693573 3.6790314c1.653717 0.5762558 10.480118 0.39169312 10.591675 -0.22148132c0.111572266 -0.61317444 -8.157028 -3.4944687 -9.9223175 -3.45755z" fill-rule="evenodd"/><path stroke="#b0a8b9" stroke-width="3.7506561679790025" stroke-linejoin="round" stroke-linecap="butt" d="m165.91956 93.76112c-1.765274 0.03691101 -2.3230743 3.1027756 -0.6693573 3.6790314c1.653717 0.5762558 10.480118 0.39169312 10.591675 -0.22148132c0.111572266 -0.61317444 -8.157028 -3.4944687 -9.9223175 -3.45755z" fill-rule="evenodd"/><path fill="#b0a8b9" d="m135.93047 86.29201c0.26002502 0.74318695 1.3563538 0.223526 2.5642395 0.6693573c1.2078857 0.4458313 4.42305 2.1356506 4.68309 2.0056305c0.26002502 -0.13002014 -2.0823364 -1.7082672 -3.122879 -2.7857285c-1.0405426 -1.0774612 -2.4329987 -3.6974945 -3.120407 -3.679039c-0.68740845 0.018463135 -1.2640839 3.046585 -1.0040436 3.7897797z" fill-rule="evenodd"/><path stroke="#b0a8b9" stroke-width="3.7506561679790025" stroke-linejoin="round" stroke-linecap="butt" d="m135.93047 86.29201c0.26002502 0.74318695 1.3563538 0.223526 2.5642395 0.6693573c1.2078857 0.4458313 4.42305 2.1356506 4.68309 2.0056305c0.26002502 -0.13002014 -2.0823364 -1.7082672 -3.122879 -2.7857285c-1.0405426 -1.0774612 -2.4329987 -3.6974945 -3.120407 -3.679039c-0.68740845 0.018463135 -1.2640839 3.046585 -1.0040436 3.7897797z" fill-rule="evenodd"/><path fill="#b0a8b9" d="m121.994385 85.62295c0.7989731 0.4831543 3.7344055 -1.1147842 5.573921 -1.1147842c1.8395157 0 4.6642075 1.5606155 5.463188 1.1147842c0.79896545 -0.4458313 -0.6509094 -2.879242 -0.66937256 -3.789772c-0.018447876 -0.9105301 1.469162 -1.7103195 0.55862427 -1.6734085c-0.91052246 0.03691864 -4.3307495 1.6533127 -6.021797 1.8948898c-1.6910477 0.24157715 -3.3070297 -1.0401382 -4.1244583 -0.4454193c-0.8174286 0.5947113 -1.579071 3.5305557 -0.7801056 4.01371z" fill-rule="evenodd"/><path stroke="#b0a8b9" stroke-width="3.7506561679790025" stroke-linejoin="round" stroke-linecap="butt" d="m121.994385 85.62295c0.7989731 0.4831543 3.7344055 -1.1147842 5.573921 -1.1147842c1.8395157 0 4.6642075 1.5606155 5.463188 1.1147842c0.79896545 -0.4458313 -0.6509094 -2.879242 -0.66937256 -3.789772c-0.018447876 -0.9105301 1.469162 -1.7103195 0.55862427 -1.6734085c-0.91052246 0.03691864 -4.3307495 1.6533127 -6.021797 1.8948898c-1.6910477 0.24157715 -3.3070297 -1.0401382 -4.1244583 -0.4454193c-0.8174286 0.5947113 -1.579071 3.5305557 -0.7801056 4.01371z" fill-rule="evenodd"/><path fill="#b0a8b9" d="m104.37737 93.315125c1.2452087 -0.07424164 3.978035 -3.7709122 6.3564835 -4.5698776c2.378456 -0.7989731 6.8552246 0.8166046 7.9142303 -0.22394562c1.0590057 -1.0405426 -0.55698395 -5.443489 -1.5602036 -6.0193405c-1.0032272 -0.57585144 -2.1549225 1.4494629 -4.459137 2.5642471c-2.3042145 1.1147842 -7.9909286 2.7496414 -9.366158 4.1244583c-1.3752289 1.3748169 -0.1304245 4.1986923 1.1147842 4.1244583z" fill-rule="evenodd"/><path stroke="#b0a8b9" stroke-width="3.7506561679790025" stroke-linejoin="round" stroke-linecap="butt" d="m104.37737 93.315125c1.2452087 -0.07424164 3.978035 -3.7709122 6.3564835 -4.5698776c2.378456 -0.7989731 6.8552246 0.8166046 7.9142303 -0.22394562c1.0590057 -1.0405426 -0.55698395 -5.443489 -1.5602036 -6.0193405c-1.0032272 -0.57585144 -2.1549225 1.4494629 -4.459137 2.5642471c-2.3042145 1.1147842 -7.9909286 2.7496414 -9.366158 4.1244583c-1.3752289 1.3748169 -0.1304245 4.1986923 1.1147842 4.1244583z" fill-rule="evenodd"/></g></svg>