<svg version="1.1" viewBox="0.0 0.0 600.0 600.0" fill="none" stroke="none" stroke-linecap="square" stroke-miterlimit="10" xmlns:xlink="http://www.w3.org/1999/xlink" xmlns="http://www.w3.org/2000/svg"><clipPath id="p.0"><path d="m0 0l600.0 0l0 600.0l-600.0 0l0 -600.0z" clip-rule="nonzero"/></clipPath><g clip-path="url(#p.0)"><path fill="#000000" fill-opacity="0.0" d="m0 0l600.0 0l0 600.0l-600.0 0z" fill-rule="evenodd"/><path fill="#b0a8b9" d="m5.4960628 0l89.00787 0l0 100.0l-89.00787 0z" fill-rule="evenodd"/><path fill="#4b4453" d="m18.220472 0l63.55905 0l0 100.0l-63.55905 0z" fill-rule="evenodd"/><path fill="#000000" fill-opacity="0.0" d="m50.0 0l0 100.0" fill-rule="evenodd"/><path stroke="#b0a8b9" stroke-width="4.0" stroke-linejoin="round" stroke-linecap="butt" stroke-dasharray="16.0,12.0" d="m50.0 0l0 100.0" fill-rule="evenodd"/><path fill="#b0a8b9" d="m100.0 105.49606l0 89.00787l-100.0 0l0 -89.00787z" fill-rule="evenodd"/><path fill="#b0a8b9" d="m5.4960628 100.0l89.00787 0l0 100.0l-89.00787 0z" fill-rule="evenodd"/><path fill="#4b4453" d="m18.220472 100.0l63.55905 0l0 100.0l-63.55905 0z" fill-rule="evenodd"/><path fill="#000000" fill-opacity="0.0" d="m50.0 100.0l0 100.0" fill-rule="evenodd"/><path stroke="#b0a8b9" stroke-width="4.0" stroke-linejoin="round" stroke-linecap="butt" stroke-dasharray="16.0,12.0" d="m50.0 100.0l0 100.0" fill-rule="evenodd"/><path fill="#4b4453" d="m100.0 118.220474l0 63.55905l-100.0 0l0 -63.55905z" fill-rule="evenodd"/><path fill="#000000" fill-opacity="0.0" d="m100.0 150.0l-100.0 0" fill-rule="evenodd"/><path stroke="#b0a8b9" stroke-width="4.0" stroke-linejoin="round" stroke-linecap="butt" stroke-dasharray="16.0,12.0" d="m100.0 150.0l-100.0 0" fill-rule="evenodd"/><path fill="#4b4453" d="m81.61155 118.220474l0 63.55905l-63.37008 0l0 -63.55905z" fill-rule="evenodd"/><path fill="#b0a8b9" d="m90.34252 205.49606l0 89.00787l-90.33071 0l0 -89.00787z" fill-rule="evenodd"/><path fill="#b0a8b9" d="m5.4973755 200.0l89.00787 0l0 100.0l-89.00787 0z" fill-rule="evenodd"/><path fill="#4b4453" d="m18.221785 200.0l63.55905 0l0 100.0l-63.55905 0z" fill-rule="evenodd"/><path fill="#000000" fill-opacity="0.0" d="m50.001312 200.0l0 100.0" fill-rule="evenodd"/><path stroke="#b0a8b9" stroke-width="4.0" stroke-linejoin="round" stroke-linecap="butt" stroke-dasharray="16.0,12.0" d="m50.001312 200.0l0 100.0" fill-rule="evenodd"/><path fill="#4b4453" d="m78.70735 218.22047l0 63.559067l-78.708664 0l0 -63.559067z" fill-rule="evenodd"/><path fill="#000000" fill-opacity="0.0" d="m78.70735 250.0l-78.708664 0" fill-rule="evenodd"/><path stroke="#b0a8b9" stroke-width="4.0" stroke-linejoin="round" stroke-linecap="butt" stroke-dasharray="16.0,12.0" d="m78.70735 250.0l-78.708664 0" fill-rule="evenodd"/><path fill="#4b4453" d="m81.61286 218.22047l0 63.559067l-63.37008 0l0 -63.559067z" fill-rule="evenodd"/><path fill="#b0a8b9" d="m90.343834 305.49606l0 89.00787l-90.33071 0l0 -89.00787z" fill-rule="evenodd"/><path fill="#b0a8b9" d="m5.4986877 300.0l89.00787 0l0 94.519684l-89.00787 0z" fill-rule="evenodd"/><path fill="#4b4453" d="m18.223097 300.0l63.55905 0l0 81.79529l-63.55905 0z" fill-rule="evenodd"/><path fill="#000000" fill-opacity="0.0" d="m50.002625 300.0l0 81.79529" fill-rule="evenodd"/><path stroke="#b0a8b9" stroke-width="4.0" stroke-linejoin="round" stroke-linecap="butt" stroke-dasharray="16.0,12.0" d="m50.002625 300.0l0 81.79529" fill-rule="evenodd"/><path fill="#4b4453" d="m78.708664 318.22046l0 63.559082l-78.708664 0l0 -63.559082z" fill-rule="evenodd"/><path fill="#000000" fill-opacity="0.0" d="m0 350.0l81.6063 0" fill-rule="evenodd"/><path stroke="#b0a8b9" stroke-width="4.0" stroke-linejoin="round" stroke-linecap="butt" stroke-dasharray="16.0,12.0" d="m0 350.0l81.6063 0" fill-rule="evenodd"/><path fill="#4b4453" d="m81.614174 318.22046l0 63.559082l-63.37008 0l0 -63.559082z" fill-rule="evenodd"/><path fill="#000000" fill-opacity="0.0" d="m100.0 400.0l0 100.0l-100.0 0l0 -100.0z" fill-rule="evenodd"/><path fill="#b0a8b9" d="m94.51181 405.49606l0 89.00787l-89.03937 0l0 -89.00787z" fill-rule="evenodd"/><path fill="#4b4453" d="m81.61155 418.22046l0 63.559082l-63.37008 0l0 -63.559082z" fill-rule="evenodd"/><path fill="#000000" fill-opacity="0.0" d="m100.0 500.0l0 100.0l-100.0 0l0 -100.0z" fill-rule="evenodd"/><path fill="#b0a8b9" d="m94.51181 505.49606l0 94.58267l-89.03937 0l0 -94.58267z" fill-rule="evenodd"/><path fill="#4b4453" d="m81.685036 518.22046l0 81.88977l-63.370075 0l0 -81.88977z" fill-rule="evenodd"/><path fill="#b0a8b9" d="m194.91759 100.0l-89.11811 0l17.823624 -58.96063l53.470863 0z" fill-rule="evenodd"/><path fill="#000000" fill-opacity="0.0" d="m200.0 0l0 100.0l-100.0 0l0 -100.0z" fill-rule="evenodd"/><path fill="#4b4453" d="m182.07874 100.0l-63.44094 0l12.688194 -50.12336l38.06456 0z" fill-rule="evenodd"/><path fill="#000000" fill-opacity="0.0" d="m200.0 99.95145l0 100.0l-100.0 0l0 -100.0z" fill-rule="evenodd"/><path fill="#b0a8b9" d="m179.4042 141.08792l0 58.960632l-57.921265 0l0 -58.960632z" fill-rule="evenodd"/><path fill="#4b4453" d="m171.07355 149.57617l0 41.984253l-41.259842 0l0 -41.984253z" fill-rule="evenodd"/></g></svg>