<svg version="1.1" viewBox="0.0 0.0 100.0 100.0" fill="none" stroke="none" stroke-linecap="square" stroke-miterlimit="10" xmlns:xlink="http://www.w3.org/1999/xlink" xmlns="http://www.w3.org/2000/svg"><clipPath id="p.0"><path d="m0 0l100.0 0l0 100.0l-100.0 0l0 -100.0z" clip-rule="nonzero"/></clipPath><g clip-path="url(#p.0)"><path fill="#000000" fill-opacity="0.0" d="m0 0l100.0 0l0 100.0l-100.0 0z" fill-rule="evenodd"/><path fill="#cdcdcd" d="m9.926509 33.356956l80.755905 0l0 41.32283l-80.755905 0z" fill-rule="evenodd"/><path stroke="#cdcdcd" stroke-width="11.417322834645669" stroke-linejoin="round" stroke-linecap="butt" d="m9.926509 33.356956l80.755905 0l0 41.32283l-80.755905 0z" fill-rule="evenodd"/><path fill="#845ec2" d="m-41.377953 0l8.881889 0l0 8.881889l-8.881889 0z" fill-rule="evenodd"/><path fill="#ff9671" d="m-32.496063 0l8.881889 0l0 8.881889l-8.881889 0z" fill-rule="evenodd"/><path fill="#c34a36" d="m-41.377953 8.881889l8.881889 0l0 8.881889l-8.881889 0z" fill-rule="evenodd"/><path fill="#ff8066" d="m-32.496063 8.881889l8.881889 0l0 8.881889l-8.881889 0z" fill-rule="evenodd"/><path fill="#ff6f91" d="m-14.732284 0l8.881889 0l0 8.881889l-8.881889 0z" fill-rule="evenodd"/><path fill="#ffc75f" d="m-23.614174 0l8.88189 0l0 8.881889l-8.88189 0z" fill-rule="evenodd"/><path fill="#008f7a" d="m-59.14173 0l8.881889 0l0 8.881889l-8.881889 0z" fill-rule="evenodd"/><path fill="#4b4453" d="m-41.377953 17.763779l8.881889 0l0 8.881891l-8.881889 0z" fill-rule="evenodd"/><path fill="#b0a8b9" d="m-32.496063 17.763779l8.881889 0l0 8.881891l-8.881889 0z" fill-rule="evenodd"/><path fill="#27252a" d="m-50.259842 17.763779l8.881889 0l0 8.881891l-8.881889 0z" fill-rule="evenodd"/><path fill="#4e8397" d="m-50.259842 0l8.881889 0l0 8.881889l-8.881889 0z" fill-rule="evenodd"/><path fill="#ffffff" d="m27.38366 54.010918l0 0l0 0c2.919468 0 5.719364 1.1597557 7.783741 3.2241325c2.0643768 2.0643768 3.2241325 4.864273 3.2241325 7.783741l0 15.480316c0 9.918213E-5 -8.392334E-5 1.8310547E-4 -1.8310547E-4 1.8310547E-4l-22.015566 -1.8310547E-4l0 0c-1.0108948E-4 0 -1.8310547E-4 -8.392334E-5 -1.8310547E-4 -1.8310547E-4l1.8310547E-4 -15.480133l0 0c0 -6.079479 4.9283943 -11.007874 11.007875 -11.007874z" fill-rule="evenodd"/><path fill="#ffffff" d="m65.5144 63.105637l0 0c0 -2.6614037 2.1574936 -4.8188972 4.818901 -4.8188972l0 0l0 0c1.2780457 0 2.5037537 0.5077019 3.4074707 1.4114227c0.9037247 0.90371704 1.4114227 2.129425 1.4114227 3.4074745l0 4.629921c0 2.6614075 -2.1574936 4.818901 -4.8188934 4.818901l0 0l0 0c-2.6614075 0 -4.818901 -2.1574936 -4.818901 -4.818901z" fill-rule="evenodd"/><path fill="#a4a4a4" d="m18.24362 59.153934l0 0l0 0c-1.2448597 0 -2.4387321 -0.49451828 -3.3189802 -1.3747673c-0.880249 -0.880249 -1.3747673 -2.0741234 -1.3747673 -3.3189812l0 -10.427387c0 -4.196167E-5 3.528595E-5 -7.6293945E-5 7.8201294E-5 -7.6293945E-5l9.387418 7.6293945E-5l0 0c4.386902E-5 0 7.8201294E-5 3.4332275E-5 7.8201294E-5 8.010864E-5l-7.8201294E-5 10.427307l0 0c0 2.5922852 -2.1014633 4.6937485 -4.6937485 4.6937485z" fill-rule="evenodd"/><path stroke="#a4a4a4" stroke-width="1.0" stroke-linejoin="round" stroke-linecap="butt" d="m18.24362 59.153934l0 0l0 0c-1.2448597 0 -2.4387321 -0.49451828 -3.3189802 -1.3747673c-0.880249 -0.880249 -1.3747673 -2.0741234 -1.3747673 -3.3189812l0 -10.427387c0 -4.196167E-5 3.528595E-5 -7.6293945E-5 7.8201294E-5 -7.6293945E-5l9.387418 7.6293945E-5l0 0c4.386902E-5 0 7.8201294E-5 3.4332275E-5 7.8201294E-5 8.010864E-5l-7.8201294E-5 10.427307l0 0c0 2.5922852 -2.1014633 4.6937485 -4.6937485 4.6937485z" fill-rule="evenodd"/><path fill="#a4a4a4" d="m17.01 45.11566l10.36389 -4.252819l10.363888 4.252819z" fill-rule="evenodd"/><path stroke="#a4a4a4" stroke-width="8.0" stroke-linejoin="round" stroke-linecap="butt" d="m17.01 45.11566l10.36389 -4.252819l10.363888 4.252819z" fill-rule="evenodd"/><path fill="#a4a4a4" d="m36.522335 59.153934l0 0l0 0c-1.2448578 0 -2.4387321 -0.49451828 -3.3189812 -1.3747673c-0.880249 -0.880249 -1.3747673 -2.0741234 -1.3747673 -3.3189812l0 -10.427387c0 -4.196167E-5 3.4332275E-5 -7.6293945E-5 7.8201294E-5 -7.6293945E-5l9.387419 7.6293945E-5l0 0c4.196167E-5 0 7.6293945E-5 3.4332275E-5 7.6293945E-5 8.010864E-5l-7.6293945E-5 10.427307l0 0c0 2.5922852 -2.1014633 4.6937485 -4.6937485 4.6937485z" fill-rule="evenodd"/><path stroke="#a4a4a4" stroke-width="1.0" stroke-linejoin="round" stroke-linecap="butt" d="m36.522335 59.153934l0 0l0 0c-1.2448578 0 -2.4387321 -0.49451828 -3.3189812 -1.3747673c-0.880249 -0.880249 -1.3747673 -2.0741234 -1.3747673 -3.3189812l0 -10.427387c0 -4.196167E-5 3.4332275E-5 -7.6293945E-5 7.8201294E-5 -7.6293945E-5l9.387419 7.6293945E-5l0 0c4.196167E-5 0 7.6293945E-5 3.4332275E-5 7.6293945E-5 8.010864E-5l-7.6293945E-5 10.427307l0 0c0 2.5922852 -2.1014633 4.6937485 -4.6937485 4.6937485z" fill-rule="evenodd"/><path fill="#a4a4a4" d="m27.382978 59.153934l0 0l0 0c-1.2448597 0 -2.438734 -0.49451828 -3.3189812 -1.3747673c-0.880249 -0.880249 -1.3747673 -2.0741234 -1.3747673 -3.3189812l0 -10.427387c0 -4.196167E-5 3.4332275E-5 -7.6293945E-5 7.8201294E-5 -7.6293945E-5l9.387417 7.6293945E-5l0 0c4.196167E-5 0 8.010864E-5 3.4332275E-5 8.010864E-5 8.010864E-5l-8.010864E-5 10.427307l0 0c0 2.5922852 -2.1014614 4.6937485 -4.6937466 4.6937485z" fill-rule="evenodd"/><path stroke="#a4a4a4" stroke-width="1.0" stroke-linejoin="round" stroke-linecap="butt" d="m27.382978 59.153934l0 0l0 0c-1.2448597 0 -2.438734 -0.49451828 -3.3189812 -1.3747673c-0.880249 -0.880249 -1.3747673 -2.0741234 -1.3747673 -3.3189812l0 -10.427387c0 -4.196167E-5 3.4332275E-5 -7.6293945E-5 7.8201294E-5 -7.6293945E-5l9.387417 7.6293945E-5l0 0c4.196167E-5 0 8.010864E-5 3.4332275E-5 8.010864E-5 8.010864E-5l-8.010864E-5 10.427307l0 0c0 2.5922852 -2.1014614 4.6937485 -4.6937466 4.6937485z" fill-rule="evenodd"/><path fill="#ffffff" d="m49.99996 60.89309l0 0c0 -1.4394493 1.1669044 -2.60635 2.60635 -2.60635l4.4250984 0l0 0c0.69124603 0 1.3541794 0.27459717 1.8429642 0.76338196c0.4887848 0.4887848 0.76338196 1.151722 0.76338196 1.842968l0 9.055016c0 1.4394455 -1.1669006 2.6063538 -2.6063461 2.6063538l-4.4250984 0l0 0c-1.4394455 0 -2.60635 -1.1669083 -2.60635 -2.6063538z" fill-rule="evenodd"/><path fill="#ffffff" d="m81.02883 63.105637l0 0c0 -2.6614037 2.1574936 -4.8188972 4.818901 -4.8188972l0 0l0 0c1.2780533 0 2.5037537 0.5077019 3.4074707 1.4114227c0.9037247 0.90371704 1.4114227 2.129425 1.4114227 3.4074745l0 4.629921c0 2.6614075 -2.1574936 4.818901 -4.8188934 4.818901l0 0l0 0c-2.6614075 0 -4.818901 -2.1574936 -4.818901 -4.818901z" fill-rule="evenodd"/><path fill="#a4a4a4" d="m52.711285 45.535446l0 0c0 -0.41168213 0.33373642 -0.74541855 0.74542236 -0.74541855l33.753254 0c0.19769287 0 0.38729858 0.07853317 0.527092 0.21832657c0.1397934 0.1397934 0.21833038 0.3293953 0.21833038 0.527092l0 2.981598c0 0.41168594 -0.33374023 0.74542236 -0.74542236 0.74542236l-33.753254 0c-0.41168594 0 -0.74542236 -0.33373642 -0.74542236 -0.74542236z" fill-rule="evenodd"/><path stroke="#a4a4a4" stroke-width="11.417322834645669" stroke-linejoin="round" stroke-linecap="butt" d="m52.711285 45.535446l0 0c0 -0.41168213 0.33373642 -0.74541855 0.74542236 -0.74541855l33.753254 0c0.19769287 0 0.38729858 0.07853317 0.527092 0.21832657c0.1397934 0.1397934 0.21833038 0.3293953 0.21833038 0.527092l0 2.981598c0 0.41168594 -0.33374023 0.74542236 -0.74542236 0.74542236l-33.753254 0c-0.41168594 0 -0.74542236 -0.33373642 -0.74542236 -0.74542236z" fill-rule="evenodd"/><path fill="#a4a4a4" d="m6.1207347 31.241491l0 0c0 -0.5711422 0.46300125 -1.0341415 1.0341415 -1.0341415l85.364784 0c0.27427673 0 0.53731537 0.108953476 0.7312546 0.30289268c0.19393921 0.19393921 0.30288696 0.45697594 0.30288696 0.73124886l0 4.136442c0 0.5711403 -0.46299744 1.0341415 -1.0341415 1.0341415l-85.364784 0c-0.5711403 0 -1.0341415 -0.46300125 -1.0341415 -1.0341415z" fill-rule="evenodd"/><path stroke="#a4a4a4" stroke-width="11.417322834645669" stroke-linejoin="round" stroke-linecap="butt" d="m6.1207347 31.241491l0 0c0 -0.5711422 0.46300125 -1.0341415 1.0341415 -1.0341415l85.364784 0c0.27427673 0 0.53731537 0.108953476 0.7312546 0.30289268c0.19393921 0.19393921 0.30288696 0.45697594 0.30288696 0.73124886l0 4.136442c0 0.5711403 -0.46299744 1.0341415 -1.0341415 1.0341415l-85.364784 0c-0.5711403 0 -1.0341415 -0.46300125 -1.0341415 -1.0341415z" fill-rule="evenodd"/><path fill="#ffffff" d="m65.5144 60.89309l0 0c0 -1.4394493 1.1669006 -2.60635 2.6063538 -2.60635l4.4250946 0l0 0c0.69124603 0 1.3541794 0.27459717 1.8429642 0.76338196c0.4887848 0.4887848 0.76338196 1.151722 0.76338196 1.842968l0 9.055016c0 1.4394455 -1.1669006 2.6063538 -2.6063461 2.6063538l-4.4250946 0l0 0c-1.4394531 0 -2.6063538 -1.1669083 -2.6063538 -2.6063538z" fill-rule="evenodd"/><path fill="#ffffff" d="m81.02883 60.89309l0 0c0 -1.4394493 1.1669083 -2.60635 2.6063538 -2.60635l4.4250946 0l0 0c0.69124603 0 1.3541794 0.27459717 1.8429642 0.76338196c0.4887848 0.4887848 0.76338196 1.151722 0.76338196 1.842968l0 9.055016c0 1.4394455 -1.1669006 2.6063538 -2.6063461 2.6063538l-4.4250946 0l0 0c-1.4394455 0 -2.6063538 -1.1669083 -2.6063538 -2.6063538z" fill-rule="evenodd"/></g></svg>