<svg version="1.1" viewBox="0.0 0.0 400.0 400.0" fill="none" stroke="none" stroke-linecap="square" stroke-miterlimit="10" xmlns:xlink="http://www.w3.org/1999/xlink" xmlns="http://www.w3.org/2000/svg"><clipPath id="p.0"><path d="m0 0l400.0 0l0 400.0l-400.0 0l0 -400.0z" clip-rule="nonzero"/></clipPath><g clip-path="url(#p.0)"><path fill="#000000" fill-opacity="0.0" d="m0 0l400.0 0l0 400.0l-400.0 0z" fill-rule="evenodd"/><path fill="#000000" fill-opacity="0.0" d="m100.0 0l0 100.0l-100.0 0l0 -100.0z" fill-rule="evenodd"/><path fill="#000000" fill-opacity="0.0" d="m200.0 0l0 100.0l-100.0 0l0 -100.0z" fill-rule="evenodd"/><path fill="#000000" fill-opacity="0.0" d="m300.0 0l0 100.0l-100.0 0l0 -100.0z" fill-rule="evenodd"/><path fill="#000000" fill-opacity="0.0" d="m401.03937 0l0 100.0l-100.0 0l0 -100.0z" fill-rule="evenodd"/><path fill="#000000" fill-opacity="0.0" d="m100.0 100.0l0 100.0l-100.0 0l0 -100.0z" fill-rule="evenodd"/><path fill="#000000" fill-opacity="0.0" d="m200.0 100.0l0 100.0l-100.0 0l0 -100.0z" fill-rule="evenodd"/><path fill="#000000" fill-opacity="0.0" d="m300.0 100.0l0 100.0l-100.0 0l0 -100.0z" fill-rule="evenodd"/><path fill="#000000" fill-opacity="0.0" d="m401.03937 100.0l0 100.0l-100.0 0l0 -100.0z" fill-rule="evenodd"/><path fill="#000000" fill-opacity="0.0" d="m100.0 200.0l0 100.0l-100.0 0l0 -100.0z" fill-rule="evenodd"/><path fill="#000000" fill-opacity="0.0" d="m200.0 200.0l0 100.0l-100.0 0l0 -100.0z" fill-rule="evenodd"/><path fill="#000000" fill-opacity="0.0" d="m300.0 200.0l0 100.0l-100.0 0l0 -100.0z" fill-rule="evenodd"/><path fill="#000000" fill-opacity="0.0" d="m401.03937 200.0l0 100.0l-100.0 0l0 -100.0z" fill-rule="evenodd"/><path fill="#000000" fill-opacity="0.0" d="m100.0 300.0l0 100.0l-100.0 0l0 -100.0z" fill-rule="evenodd"/><path fill="#000000" fill-opacity="0.0" d="m200.0 300.0l0 100.0l-100.0 0l0 -100.0z" fill-rule="evenodd"/><path fill="#000000" fill-opacity="0.0" d="m300.0 300.0l0 100.0l-100.0 0l0 -100.0z" fill-rule="evenodd"/><path fill="#000000" fill-opacity="0.0" d="m401.03937 300.0l0 100.0l-100.0 0l0 -100.0z" fill-rule="evenodd"/><path fill="#845ec2" d="m-165.51181 0l35.527557 0l0 35.527557l-35.527557 0z" fill-rule="evenodd"/><path fill="#ff9671" d="m-129.98425 0l35.527557 0l0 35.527557l-35.527557 0z" fill-rule="evenodd"/><path fill="#c34a36" d="m-165.51181 35.527557l35.527557 0l0 35.527557l-35.527557 0z" fill-rule="evenodd"/><path fill="#ff8066" d="m-129.98425 35.527557l35.527557 0l0 35.527557l-35.527557 0z" fill-rule="evenodd"/><path fill="#ff6f91" d="m-58.929134 0l35.527557 0l0 35.527557l-35.527557 0z" fill-rule="evenodd"/><path fill="#ffc75f" d="m-94.456696 0l35.52756 0l0 35.527557l-35.52756 0z" fill-rule="evenodd"/><path fill="#008f7a" d="m-236.56693 0l35.527557 0l0 35.527557l-35.527557 0z" fill-rule="evenodd"/><path fill="#4b4453" d="m-165.51181 71.055115l35.527557 0l0 35.527565l-35.527557 0z" fill-rule="evenodd"/><path fill="#b0a8b9" d="m-129.98425 71.055115l35.527557 0l0 35.527565l-35.527557 0z" fill-rule="evenodd"/><path fill="#27252a" d="m-201.03937 71.055115l35.527557 0l0 35.527565l-35.527557 0z" fill-rule="evenodd"/><path fill="#4e8397" d="m-201.03937 0l35.527557 0l0 35.527557l-35.527557 0z" fill-rule="evenodd"/><path fill="#b0a8b9" d="m41.210598 89.94599c-1.0192299 0.03642273 -3.6762352 -2.038643 -4.1494255 -4.58654c-0.4731865 -2.547905 0.2910576 -10.664444 1.3102913 -10.700867c1.0192299 -0.03643036 4.331909 7.9344025 4.8050995 10.482307c0.4731903 2.5478973 -0.9467354 4.768669 -1.9659653 4.8050995z" fill-rule="evenodd"/><path stroke="#b0a8b9" stroke-width="1.6246719160104988" stroke-linejoin="round" stroke-linecap="butt" d="m41.210598 89.94599c-1.0192299 0.03642273 -3.6762352 -2.038643 -4.1494255 -4.58654c-0.4731865 -2.547905 0.2910576 -10.664444 1.3102913 -10.700867c1.0192299 -0.03643036 4.331909 7.9344025 4.8050995 10.482307c0.4731903 2.5478973 -0.9467354 4.768669 -1.9659653 4.8050995z" fill-rule="evenodd"/><path fill="#b0a8b9" d="m43.90591 91.97624c-1.0004807 -0.198143 -3.773178 -3.3030777 -2.987873 -5.4156265c0.785305 -2.1125565 6.69923 -7.4578247 7.699711 -7.259674c1.0004807 0.19815063 -0.9115181 6.336006 -1.6968231 8.448555c-0.78530884 2.1125488 -2.0145302 4.4248962 -3.0150146 4.2267456z" fill-rule="evenodd"/><path stroke="#b0a8b9" stroke-width="1.6246719160104988" stroke-linejoin="round" stroke-linecap="butt" d="m43.90591 91.97624c-1.0004807 -0.198143 -3.773178 -3.3030777 -2.987873 -5.4156265c0.785305 -2.1125565 6.69923 -7.4578247 7.699711 -7.259674c1.0004807 0.19815063 -0.9115181 6.336006 -1.6968231 8.448555c-0.78530884 2.1125488 -2.0145302 4.4248962 -3.0150146 4.2267456z" fill-rule="evenodd"/><path fill="#b0a8b9" d="m79.90656 97.265564c-0.7451706 0.69618225 -4.8843994 1.1327667 -6.140106 -0.73844147c-1.2557144 -1.8712006 -2.1393204 -9.792603 -1.3941498 -10.488785c0.74516296 -0.69618225 4.6094437 4.440483 5.8651505 6.3116837c1.2557068 1.8712082 2.4142761 4.2193604 1.6691055 4.9155426z" fill-rule="evenodd"/><path stroke="#b0a8b9" stroke-width="1.6246719160104988" stroke-linejoin="round" stroke-linecap="butt" d="m79.90656 97.265564c-0.7451706 0.69618225 -4.8843994 1.1327667 -6.140106 -0.73844147c-1.2557144 -1.8712006 -2.1393204 -9.792603 -1.3941498 -10.488785c0.74516296 -0.69618225 4.6094437 4.440483 5.8651505 6.3116837c1.2557068 1.8712082 2.4142761 4.2193604 1.6691055 4.9155426z" fill-rule="evenodd"/><path fill="#b0a8b9" d="m44.158104 171.01949c-1.0192299 0.03642273 -3.6762352 -2.0386505 -4.1494217 -4.586548c-0.4731903 -2.5478973 0.29105377 -10.664444 1.3102875 -10.700867c1.0192299 -0.03642273 4.331909 7.9344025 4.8050995 10.482315c0.4731903 2.5478973 -0.94673157 4.7686615 -1.9659653 4.8050995z" fill-rule="evenodd"/><path stroke="#b0a8b9" stroke-width="1.6246719160104988" stroke-linejoin="round" stroke-linecap="butt" d="m44.158104 171.01949c-1.0192299 0.03642273 -3.6762352 -2.0386505 -4.1494217 -4.586548c-0.4731903 -2.5478973 0.29105377 -10.664444 1.3102875 -10.700867c1.0192299 -0.03642273 4.331909 7.9344025 4.8050995 10.482315c0.4731903 2.5478973 -0.94673157 4.7686615 -1.9659653 4.8050995z" fill-rule="evenodd"/><path fill="#b0a8b9" d="m45.745808 173.04973c-1.0004807 -0.19813538 -3.773182 -3.30307 -2.987877 -5.415619c0.785305 -2.112564 6.69923 -7.4578247 7.699711 -7.259674c1.0004807 0.19815063 -0.9115181 6.3359985 -1.6968231 8.448547c-0.785305 2.1125488 -2.0145302 4.4248962 -3.0150108 4.2267456z" fill-rule="evenodd"/><path stroke="#b0a8b9" stroke-width="1.6246719160104988" stroke-linejoin="round" stroke-linecap="butt" d="m45.745808 173.04973c-1.0004807 -0.19813538 -3.773182 -3.30307 -2.987877 -5.415619c0.785305 -2.112564 6.69923 -7.4578247 7.699711 -7.259674c1.0004807 0.19815063 -0.9115181 6.3359985 -1.6968231 8.448547c-0.785305 2.1125488 -2.0145302 4.4248962 -3.0150108 4.2267456z" fill-rule="evenodd"/><path fill="#b0a8b9" d="m41.54698 172.82462c-0.7451668 0.69618225 -4.8843956 1.1327667 -6.140106 -0.73843384c-1.2557106 -1.8712006 -2.1393166 -9.792603 -1.3941498 -10.488785c0.7451668 -0.69618225 4.60944 4.4404755 5.8651505 6.311676c1.2557106 1.8712158 2.4142723 4.2193604 1.6691055 4.9155426z" fill-rule="evenodd"/><path stroke="#b0a8b9" stroke-width="1.6246719160104988" stroke-linejoin="round" stroke-linecap="butt" d="m41.54698 172.82462c-0.7451668 0.69618225 -4.8843956 1.1327667 -6.140106 -0.73843384c-1.2557106 -1.8712006 -2.1393166 -9.792603 -1.3941498 -10.488785c0.7451668 -0.69618225 4.60944 4.4404755 5.8651505 6.311676c1.2557106 1.8712158 2.4142723 4.2193604 1.6691055 4.9155426z" fill-rule="evenodd"/><path fill="#b0a8b9" d="m67.24501 158.00447c-0.5179596 -0.1918335 -0.98246765 -2.6727905 -0.17604828 -5.103134c0.8064194 -2.430359 4.496605 -9.670776 5.0145645 -9.478958c0.5179596 0.1918335 -1.10038 8.199539 -1.9067993 10.629883c-0.8064194 2.4303436 -2.4137573 4.1440277 -2.931717 3.9522095z" fill-rule="evenodd"/><path stroke="#b0a8b9" stroke-width="1.6246719160104988" stroke-linejoin="round" stroke-linecap="butt" d="m67.24501 158.00447c-0.5179596 -0.1918335 -0.98246765 -2.6727905 -0.17604828 -5.103134c0.8064194 -2.430359 4.496605 -9.670776 5.0145645 -9.478958c0.5179596 0.1918335 -1.10038 8.199539 -1.9067993 10.629883c-0.8064194 2.4303436 -2.4137573 4.1440277 -2.931717 3.9522095z" fill-rule="evenodd"/><path fill="#b0a8b9" d="m66.377594 233.82149c-0.9695358 0.31628418 -4.095852 -0.94480896 -5.253784 -3.2630157c-1.1579361 -2.3182068 -2.6633568 -10.329941 -1.693821 -10.64624c0.969532 -0.31628418 6.3530846 6.430298 7.5110207 8.748505c1.1579361 2.3182068 0.40611267 4.844467 -0.5634155 5.1607513z" fill-rule="evenodd"/><path stroke="#b0a8b9" stroke-width="1.6246719160104988" stroke-linejoin="round" stroke-linecap="butt" d="m66.377594 233.82149c-0.9695358 0.31628418 -4.095852 -0.94480896 -5.253784 -3.2630157c-1.1579361 -2.3182068 -2.6633568 -10.329941 -1.693821 -10.64624c0.969532 -0.31628418 6.3530846 6.430298 7.5110207 8.748505c1.1579361 2.3182068 0.40611267 4.844467 -0.5634155 5.1607513z" fill-rule="evenodd"/><path fill="#b0a8b9" d="m68.46272 235.3346c-1.0162201 0.08557129 -4.5375977 -2.133667 -4.365631 -4.3806763c0.17197418 -2.246994 4.3812256 -9.015762 5.3974457 -9.101318c1.0162201 -0.08557129 0.87184143 6.3409576 0.6998749 8.587952c-0.17197418 2.2470093 -0.71546936 4.808487 -1.7316895 4.894043z" fill-rule="evenodd"/><path stroke="#b0a8b9" stroke-width="1.6246719160104988" stroke-linejoin="round" stroke-linecap="butt" d="m68.46272 235.3346c-1.0162201 0.08557129 -4.5375977 -2.133667 -4.365631 -4.3806763c0.17197418 -2.246994 4.3812256 -9.015762 5.3974457 -9.101318c1.0162201 -0.08557129 0.87184143 6.3409576 0.6998749 8.587952c-0.17197418 2.2470093 -0.71546936 4.808487 -1.7316895 4.894043z" fill-rule="evenodd"/><path fill="#b0a8b9" d="m123.74936 242.51595c-0.9283371 0.30551147 -3.9648895 -1.0440521 -5.1245346 -3.438614c-1.1596451 -2.3945618 -2.761673 -10.623245 -1.8333359 -10.928757c0.9283371 -0.30551147 6.243721 6.7011414 7.403366 9.095703c1.1596451 2.3945618 0.4828415 4.9661713 -0.4454956 5.2716675z" fill-rule="evenodd"/><path stroke="#b0a8b9" stroke-width="1.6246719160104988" stroke-linejoin="round" stroke-linecap="butt" d="m123.74936 242.51595c-0.9283371 0.30551147 -3.9648895 -1.0440521 -5.1245346 -3.438614c-1.1596451 -2.3945618 -2.761673 -10.623245 -1.8333359 -10.928757c0.9283371 -0.30551147 6.243721 6.7011414 7.403366 9.095703c1.1596451 2.3945618 0.4828415 4.9661713 -0.4454956 5.2716675z" fill-rule="evenodd"/><path fill="#b0a8b9" d="m44.29343 334.42383c-1.0162201 0.08557129 -4.5375977 -2.133667 -4.3656273 -4.3806763c0.17197037 -2.2469788 4.3812256 -9.015747 5.3974457 -9.101318c1.0162201 -0.08557129 0.87184143 6.3409424 0.69987106 8.587952c-0.17197037 2.2470093 -0.71546936 4.808502 -1.7316895 4.894043z" fill-rule="evenodd"/><path stroke="#b0a8b9" stroke-width="1.6246719160104988" stroke-linejoin="round" stroke-linecap="butt" d="m44.29343 334.42383c-1.0162201 0.08557129 -4.5375977 -2.133667 -4.3656273 -4.3806763c0.17197037 -2.2469788 4.3812256 -9.015747 5.3974457 -9.101318c1.0162201 -0.08557129 0.87184143 6.3409424 0.69987106 8.587952c-0.17197037 2.2470093 -0.71546936 4.808502 -1.7316895 4.894043z" fill-rule="evenodd"/><path fill="#b0a8b9" d="m125.604 191.8477c-0.85388184 0.030517578 -3.0798187 -1.707901 -3.476242 -3.8424377c-0.39642334 -2.134552 0.24383545 -8.934296 1.0977097 -8.964813c0.85388184 -0.030517578 3.6291275 6.647171 4.025543 8.781708c0.39642334 2.1345367 -0.7931366 3.9950256 -1.6470108 4.025543z" fill-rule="evenodd"/><path stroke="#b0a8b9" stroke-width="1.3622047244094488" stroke-linejoin="round" stroke-linecap="butt" d="m125.604 191.8477c-0.85388184 0.030517578 -3.0798187 -1.707901 -3.476242 -3.8424377c-0.39642334 -2.134552 0.24383545 -8.934296 1.0977097 -8.964813c0.85388184 -0.030517578 3.6291275 6.647171 4.025543 8.781708c0.39642334 2.1345367 -0.7931366 3.9950256 -1.6470108 4.025543z" fill-rule="evenodd"/><path fill="#b0a8b9" d="m126.933075 193.54663c-0.8380432 -0.16601562 -3.1604462 -2.7669373 -2.5025635 -4.5364685c0.6578903 -1.7695312 5.611847 -6.2467194 6.44989 -6.0807037c0.8380432 0.16601562 -0.7637787 5.307266 -1.4216614 7.0767975c-0.65789795 1.7695312 -1.6876297 3.7063904 -2.5256653 3.5403748z" fill-rule="evenodd"/><path stroke="#b0a8b9" stroke-width="1.3622047244094488" stroke-linejoin="round" stroke-linecap="butt" d="m126.933075 193.54663c-0.8380432 -0.16601562 -3.1604462 -2.7669373 -2.5025635 -4.5364685c0.6578903 -1.7695312 5.611847 -6.2467194 6.44989 -6.0807037c0.8380432 0.16601562 -0.7637787 5.307266 -1.4216614 7.0767975c-0.65789795 1.7695312 -1.6876297 3.7063904 -2.5256653 3.5403748z" fill-rule="evenodd"/><path fill="#b0a8b9" d="m141.05386 61.737946c-0.5884094 0.036426544 -2.1222992 -2.038639 -2.3954773 -4.58654c-0.27316284 -2.5479012 0.16802979 -10.66444 0.7564392 -10.700867c0.5884094 -0.036426544 2.500824 7.9344063 2.7739868 10.482307c0.2731781 2.5479012 -0.5465393 4.768673 -1.1349487 4.8050995z" fill-rule="evenodd"/><path stroke="#b0a8b9" stroke-width="1.6246719160104988" stroke-linejoin="round" stroke-linecap="butt" d="m141.05386 61.737946c-0.5884094 0.036426544 -2.1222992 -2.038639 -2.3954773 -4.58654c-0.27316284 -2.5479012 0.16802979 -10.66444 0.7564392 -10.700867c0.5884094 -0.036426544 2.500824 7.9344063 2.7739868 10.482307c0.2731781 2.5479012 -0.5465393 4.768673 -1.1349487 4.8050995z" fill-rule="evenodd"/><path fill="#b0a8b9" d="m144.22142 64.42525c-0.97029114 -0.36657715 -3.958786 -3.495304 -3.4629211 -5.082546c0.4958496 -1.5872421 5.4677277 -4.807476 6.438019 -4.4409027c0.97029114 0.36657333 -0.12045288 5.0531006 -0.6163025 6.640339c-0.4958496 1.5872421 -1.388504 3.2496796 -2.3587952 2.88311z" fill-rule="evenodd"/><path stroke="#b0a8b9" stroke-width="1.6246719160104988" stroke-linejoin="round" stroke-linecap="butt" d="m144.22142 64.42525c-0.97029114 -0.36657715 -3.958786 -3.495304 -3.4629211 -5.082546c0.4958496 -1.5872421 5.4677277 -4.807476 6.438019 -4.4409027c0.97029114 0.36657333 -0.12045288 5.0531006 -0.6163025 6.640339c-0.4958496 1.5872421 -1.388504 3.2496796 -2.3587952 2.88311z" fill-rule="evenodd"/><path fill="#b0a8b9" d="m174.89616 35.058193c-0.9940033 -0.22777557 -3.6727753 -3.4133148 -2.8251343 -5.501278c0.84765625 -2.087963 6.9170074 -7.254278 7.9110107 -7.0265045c0.9940033 0.22777367 -1.0993347 6.3051834 -1.946991 8.3931465c-0.847641 2.087963 -2.1448975 4.3624077 -3.1388855 4.134636z" fill-rule="evenodd"/><path stroke="#b0a8b9" stroke-width="1.6246719160104988" stroke-linejoin="round" stroke-linecap="butt" d="m174.89616 35.058193c-0.9940033 -0.22777557 -3.6727753 -3.4133148 -2.8251343 -5.501278c0.84765625 -2.087963 6.9170074 -7.254278 7.9110107 -7.0265045c0.9940033 0.22777367 -1.0993347 6.3051834 -1.946991 8.3931465c-0.847641 2.087963 -2.1448975 4.3624077 -3.1388855 4.134636z" fill-rule="evenodd"/><path fill="#b0a8b9" d="m229.41386 91.87592c-1.0153351 0.096084595 -4.559723 -2.0867157 -4.4110107 -4.3355103c0.14871216 -2.2488022 4.2879333 -9.061188 5.3032684 -9.157272c1.0153351 -0.096076965 0.93748474 6.331978 0.7887726 8.580772c-0.1486969 2.2488022 -0.6656952 4.815933 -1.6810303 4.91201z" fill-rule="evenodd"/><path stroke="#b0a8b9" stroke-width="1.6246719160104988" stroke-linejoin="round" stroke-linecap="butt" d="m229.41386 91.87592c-1.0153351 0.096084595 -4.559723 -2.0867157 -4.4110107 -4.3355103c0.14871216 -2.2488022 4.2879333 -9.061188 5.3032684 -9.157272c1.0153351 -0.096076965 0.93748474 6.331978 0.7887726 8.580772c-0.1486969 2.2488022 -0.6656952 4.815933 -1.6810303 4.91201z" fill-rule="evenodd"/><path fill="#b0a8b9" d="m241.5413 164.63628c-1.0192261 0.03642273 -3.676239 -2.0386353 -4.1494293 -4.5865326c-0.47317505 -2.5479126 0.2910614 -10.664444 1.3102875 -10.700867c1.0192413 -0.03643799 4.3319244 7.9344025 4.8051147 10.4823c0.4731903 2.5478973 -0.9467468 4.7686768 -1.9659729 4.8050995z" fill-rule="evenodd"/><path stroke="#b0a8b9" stroke-width="1.6246719160104988" stroke-linejoin="round" stroke-linecap="butt" d="m241.5413 164.63628c-1.0192261 0.03642273 -3.676239 -2.0386353 -4.1494293 -4.5865326c-0.47317505 -2.5479126 0.2910614 -10.664444 1.3102875 -10.700867c1.0192413 -0.03643799 4.3319244 7.9344025 4.8051147 10.4823c0.4731903 2.5478973 -0.9467468 4.7686768 -1.9659729 4.8050995z" fill-rule="evenodd"/><path fill="#b0a8b9" d="m349.57208 48.9456c-1.0192261 0.036426544 -4.4296265 -2.3503075 -4.149414 -4.58654c0.2802124 -2.2362328 4.811493 -8.794426 5.830719 -8.8308525c1.0192261 -0.036426544 0.5648804 6.3760605 0.28466797 8.612293c-0.2802124 2.2362328 -0.9467468 4.768673 -1.9659729 4.8050995z" fill-rule="evenodd"/><path stroke="#b0a8b9" stroke-width="1.6246719160104988" stroke-linejoin="round" stroke-linecap="butt" d="m349.57208 48.9456c-1.0192261 0.036426544 -4.4296265 -2.3503075 -4.149414 -4.58654c0.2802124 -2.2362328 4.811493 -8.794426 5.830719 -8.8308525c1.0192261 -0.036426544 0.5648804 6.3760605 0.28466797 8.612293c-0.2802124 2.2362328 -0.9467468 4.768673 -1.9659729 4.8050995z" fill-rule="evenodd"/><path fill="#b0a8b9" d="m265.06943 148.37129c-0.92181396 -0.436615 -2.326416 -3.5017853 -1.5742798 -5.98201c0.75216675 -2.4802246 5.165344 -9.335953 6.0871887 -8.8993225c0.92181396 0.436615 0.19592285 9.038834 -0.5562439 11.519058c-0.75213623 2.4802094 -3.034851 3.7989044 -3.956665 3.3622742z" fill-rule="evenodd"/><path stroke="#b0a8b9" stroke-width="1.6246719160104988" stroke-linejoin="round" stroke-linecap="butt" d="m265.06943 148.37129c-0.92181396 -0.436615 -2.326416 -3.5017853 -1.5742798 -5.98201c0.75216675 -2.4802246 5.165344 -9.335953 6.0871887 -8.8993225c0.92181396 0.436615 0.19592285 9.038834 -0.5562439 11.519058c-0.75213623 2.4802094 -3.034851 3.7989044 -3.956665 3.3622742z" fill-rule="evenodd"/><path fill="#b0a8b9" d="m229.20929 274.7859c-1.0192413 0.03640747 -3.676239 -2.0386353 -4.1494293 -4.586548c-0.4731903 -2.5479126 0.2910614 -10.664429 1.3102875 -10.700867c1.0192413 -0.03640747 4.331909 7.9344177 4.8050995 10.4823c0.4731903 2.5479126 -0.94673157 4.7686768 -1.9659576 4.8051147z" fill-rule="evenodd"/><path stroke="#b0a8b9" stroke-width="1.6246719160104988" stroke-linejoin="round" stroke-linecap="butt" d="m229.20929 274.7859c-1.0192413 0.03640747 -3.676239 -2.0386353 -4.1494293 -4.586548c-0.4731903 -2.5479126 0.2910614 -10.664429 1.3102875 -10.700867c1.0192413 -0.03640747 4.331909 7.9344177 4.8050995 10.4823c0.4731903 2.5479126 -0.94673157 4.7686768 -1.9659576 4.8051147z" fill-rule="evenodd"/><path fill="#b0a8b9" d="m340.42188 258.96173c-1.0192261 0.03643799 -3.676239 -2.0386353 -4.149414 -4.5865326c-0.47317505 -2.5478973 0.29104614 -10.664444 1.3103027 -10.700867c1.0192261 -0.03642273 4.331909 7.9344025 4.805084 10.4823c0.47320557 2.5478973 -0.9467468 4.768692 -1.9659729 4.8050995z" fill-rule="evenodd"/><path stroke="#b0a8b9" stroke-width="1.6246719160104988" stroke-linejoin="round" stroke-linecap="butt" d="m340.42188 258.96173c-1.0192261 0.03643799 -3.676239 -2.0386353 -4.149414 -4.5865326c-0.47317505 -2.5478973 0.29104614 -10.664444 1.3103027 -10.700867c1.0192261 -0.03642273 4.331909 7.9344025 4.805084 10.4823c0.47320557 2.5478973 -0.9467468 4.768692 -1.9659729 4.8050995z" fill-rule="evenodd"/><path fill="#b0a8b9" d="m356.19223 264.0024c-1.0192261 0.03643799 -3.676239 -2.0386353 -4.149414 -4.586548c-0.47320557 -2.547882 0.29104614 -10.664429 1.3102722 -10.700851c1.0192261 -0.03642273 4.331909 7.9344025 4.8051147 10.482315c0.47317505 2.547882 -0.9467468 4.7686768 -1.9659729 4.805084z" fill-rule="evenodd"/><path stroke="#b0a8b9" stroke-width="1.6246719160104988" stroke-linejoin="round" stroke-linecap="butt" d="m356.19223 264.0024c-1.0192261 0.03643799 -3.676239 -2.0386353 -4.149414 -4.586548c-0.47320557 -2.547882 0.29104614 -10.664429 1.3102722 -10.700851c1.0192261 -0.03642273 4.331909 7.9344025 4.8051147 10.482315c0.47317505 2.547882 -0.9467468 4.7686768 -1.9659729 4.805084z" fill-rule="evenodd"/><path fill="#b0a8b9" d="m357.77994 266.03268c-1.0004883 -0.19815063 -3.7731934 -3.3031006 -2.9878845 -5.4156494c0.78530884 -2.1125488 6.6992188 -7.4578094 7.699707 -7.259659c1.0004883 0.19815063 -0.91152954 6.336014 -1.6968079 8.448563c-0.78530884 2.1125488 -2.014557 4.4248962 -3.0150146 4.2267456z" fill-rule="evenodd"/><path stroke="#b0a8b9" stroke-width="1.6246719160104988" stroke-linejoin="round" stroke-linecap="butt" d="m357.77994 266.03268c-1.0004883 -0.19815063 -3.7731934 -3.3031006 -2.9878845 -5.4156494c0.78530884 -2.1125488 6.6992188 -7.4578094 7.699707 -7.259659c1.0004883 0.19815063 -0.91152954 6.336014 -1.6968079 8.448563c-0.78530884 2.1125488 -2.014557 4.4248962 -3.0150146 4.2267456z" fill-rule="evenodd"/><path fill="#b0a8b9" d="m379.27914 250.98741c-0.51797485 -0.1918335 -0.9824829 -2.6727905 -0.17605591 -5.103134c0.806427 -2.430359 4.4966125 -9.670776 5.014557 -9.478958c0.51797485 0.1918335 -1.1003723 8.199539 -1.9067993 10.629883c-0.806427 2.4303436 -2.4137573 4.1440277 -2.9317017 3.9522095z" fill-rule="evenodd"/><path stroke="#b0a8b9" stroke-width="1.6246719160104988" stroke-linejoin="round" stroke-linecap="butt" d="m379.27914 250.98741c-0.51797485 -0.1918335 -0.9824829 -2.6727905 -0.17605591 -5.103134c0.806427 -2.430359 4.4966125 -9.670776 5.014557 -9.478958c0.51797485 0.1918335 -1.1003723 8.199539 -1.9067993 10.629883c-0.806427 2.4303436 -2.4137573 4.1440277 -2.9317017 3.9522095z" fill-rule="evenodd"/><path fill="#b0a8b9" d="m337.5615 328.55017c-0.8996277 0.48034668 -4.197815 -0.21679688 -5.741913 -2.297821c-1.5440979 -2.0810242 -4.4223022 -9.707977 -3.5226746 -10.188324c0.89959717 -0.4803772 7.37619 5.225128 8.920288 7.3061523c1.5440979 2.0810242 1.2438965 4.6996155 0.34429932 5.1799927z" fill-rule="evenodd"/><path stroke="#b0a8b9" stroke-width="1.6246719160104988" stroke-linejoin="round" stroke-linecap="butt" d="m337.5615 328.55017c-0.8996277 0.48034668 -4.197815 -0.21679688 -5.741913 -2.297821c-1.5440979 -2.0810242 -4.4223022 -9.707977 -3.5226746 -10.188324c0.89959717 -0.4803772 7.37619 5.225128 8.920288 7.3061523c1.5440979 2.0810242 1.2438965 4.6996155 0.34429932 5.1799927z" fill-rule="evenodd"/><path fill="#b0a8b9" d="m339.44647 329.2088c-1.0102539 0.13986206 -4.6457214 -1.8877869 -4.5942993 -4.14093c0.0513916 -2.2531738 3.892456 -9.238159 4.90271 -9.378052c1.0102539 -0.13986206 1.2102356 6.285675 1.158844 8.538849c-0.05142212 2.2531433 -0.45700073 4.840271 -1.4672546 4.980133z" fill-rule="evenodd"/><path stroke="#b0a8b9" stroke-width="1.6246719160104988" stroke-linejoin="round" stroke-linecap="butt" d="m339.44647 329.2088c-1.0102539 0.13986206 -4.6457214 -1.8877869 -4.5942993 -4.14093c0.0513916 -2.2531738 3.892456 -9.238159 4.90271 -9.378052c1.0102539 -0.13986206 1.2102356 6.285675 1.158844 8.538849c-0.05142212 2.2531433 -0.45700073 4.840271 -1.4672546 4.980133z" fill-rule="evenodd"/><path fill="#b0a8b9" d="m338.7062 329.21655c-0.54953 0.055236816 -2.056305 -1.9692383 -2.3992004 -4.506531c-0.3428955 -2.5372925 -0.2076416 -10.661926 0.3418579 -10.717163c0.54953 -0.0552063 2.6123657 7.848572 2.9552612 10.385864c0.3428955 2.537262 -0.3484192 4.7826233 -0.8979187 4.8378296z" fill-rule="evenodd"/><path stroke="#b0a8b9" stroke-width="1.6246719160104988" stroke-linejoin="round" stroke-linecap="butt" d="m338.7062 329.21655c-0.54953 0.055236816 -2.056305 -1.9692383 -2.3992004 -4.506531c-0.3428955 -2.5372925 -0.2076416 -10.661926 0.3418579 -10.717163c0.54953 -0.0552063 2.6123657 7.848572 2.9552612 10.385864c0.3428955 2.537262 -0.3484192 4.7826233 -0.8979187 4.8378296z" fill-rule="evenodd"/><path fill="#b0a8b9" d="m370.7072 358.8718c-0.63409424 0.0289917 -2.2870178 -1.6230774 -2.5813904 -3.6516418c-0.29437256 -2.028534 0.18106079 -8.49057 0.8151245 -8.519592c0.63409424 -0.0289917 2.6949158 6.3170776 2.9892883 8.345612c0.29437256 2.028534 -0.58895874 3.7966003 -1.2230225 3.8256226z" fill-rule="evenodd"/><path stroke="#b0a8b9" stroke-width="1.6246719160104988" stroke-linejoin="round" stroke-linecap="butt" d="m370.7072 358.8718c-0.63409424 0.0289917 -2.2870178 -1.6230774 -2.5813904 -3.6516418c-0.29437256 -2.028534 0.18106079 -8.49057 0.8151245 -8.519592c0.63409424 -0.0289917 2.6949158 6.3170776 2.9892883 8.345612c0.29437256 2.028534 -0.58895874 3.7966003 -1.2230225 3.8256226z" fill-rule="evenodd"/></g></svg>