<svg version="1.1" viewBox="0.0 0.0 50.0 100.0" fill="none" stroke="none" stroke-linecap="square" stroke-miterlimit="10" xmlns:xlink="http://www.w3.org/1999/xlink" xmlns="http://www.w3.org/2000/svg"><clipPath id="p.0"><path d="m0 0l50.0 0l0 100.0l-50.0 0l0 -100.0z" clip-rule="nonzero"/></clipPath><g clip-path="url(#p.0)"><path fill="#000000" fill-opacity="0.0" d="m0 0l50.0 0l0 100.0l-50.0 0z" fill-rule="evenodd"/><path fill="#ffffff" d="m4.905512 18.41202l0 0c0 -6.4722843 5.2468224 -11.719107 11.719105 -11.719107l16.750765 0l0 0c3.108101 0 6.0889015 1.2346878 8.286659 3.432446c2.1977577 2.1977587 3.4324493 5.1785593 3.4324493 8.28666l0 63.175964c0 6.4722824 -5.2468224 11.719101 -11.719109 11.719101l-16.750765 0c-6.4722824 0 -11.719105 -5.2468185 -11.719105 -11.719101z" fill-rule="evenodd"/><path stroke="#efefef" stroke-width="8.0" stroke-linejoin="round" stroke-linecap="butt" d="m4.905512 18.41202l0 0c0 -6.4722843 5.2468224 -11.719107 11.719105 -11.719107l16.750765 0l0 0c3.108101 0 6.0889015 1.2346878 8.286659 3.432446c2.1977577 2.1977587 3.4324493 5.1785593 3.4324493 8.28666l0 63.175964c0 6.4722824 -5.2468224 11.719101 -11.719109 11.719101l-16.750765 0c-6.4722824 0 -11.719105 -5.2468185 -11.719105 -11.719101z" fill-rule="evenodd"/></g></svg>