<svg version="1.1" viewBox="0.0 0.0 100.0 100.0" fill="none" stroke="none" stroke-linecap="square" stroke-miterlimit="10" xmlns:xlink="http://www.w3.org/1999/xlink" xmlns="http://www.w3.org/2000/svg"><clipPath id="p.0"><path d="m0 0l100.0 0l0 100.0l-100.0 0l0 -100.0z" clip-rule="nonzero"/></clipPath><g clip-path="url(#p.0)"><path fill="#000000" fill-opacity="0.0" d="m0 0l100.0 0l0 100.0l-100.0 0z" fill-rule="evenodd"/><path fill="#cdcdcd" d="m6.2834644 93.7979l4.125984 -16.503937l79.18111 0l4.125984 16.503937z" fill-rule="evenodd"/><path stroke="#cdcdcd" stroke-width="11.417322834645669" stroke-linejoin="round" stroke-linecap="butt" d="m6.2834644 93.7979l4.125984 -16.503937l79.18111 0l4.125984 16.503937z" fill-rule="evenodd"/><path fill="#cdcdcd" d="m9.622047 33.480316l80.755905 0l0 41.32283l-80.755905 0z" fill-rule="evenodd"/><path stroke="#cdcdcd" stroke-width="11.417322834645669" stroke-linejoin="round" stroke-linecap="butt" d="m9.622047 33.480316l80.755905 0l0 41.32283l-80.755905 0z" fill-rule="evenodd"/><path fill="#845ec2" d="m-41.377953 0l8.881889 0l0 8.881889l-8.881889 0z" fill-rule="evenodd"/><path fill="#ff9671" d="m-32.496063 0l8.881889 0l0 8.881889l-8.881889 0z" fill-rule="evenodd"/><path fill="#c34a36" d="m-41.377953 8.881889l8.881889 0l0 8.881889l-8.881889 0z" fill-rule="evenodd"/><path fill="#ff8066" d="m-32.496063 8.881889l8.881889 0l0 8.881889l-8.881889 0z" fill-rule="evenodd"/><path fill="#ff6f91" d="m-14.732284 0l8.881889 0l0 8.881889l-8.881889 0z" fill-rule="evenodd"/><path fill="#ffc75f" d="m-23.614174 0l8.88189 0l0 8.881889l-8.88189 0z" fill-rule="evenodd"/><path fill="#008f7a" d="m-59.14173 0l8.881889 0l0 8.881889l-8.881889 0z" fill-rule="evenodd"/><path fill="#4b4453" d="m-41.377953 17.763779l8.881889 0l0 8.881891l-8.881889 0z" fill-rule="evenodd"/><path fill="#b0a8b9" d="m-32.496063 17.763779l8.881889 0l0 8.881891l-8.881889 0z" fill-rule="evenodd"/><path fill="#27252a" d="m-50.259842 17.763779l8.881889 0l0 8.881891l-8.881889 0z" fill-rule="evenodd"/><path fill="#4e8397" d="m-50.259842 0l8.881889 0l0 8.881889l-8.881889 0z" fill-rule="evenodd"/><path fill="#ffffff" d="m50.000458 54.189396l0 0l0 0c2.919468 0 5.719364 1.1597557 7.783741 3.2241325c2.0643768 2.0643768 3.2241325 4.864273 3.2241325 7.783745l0 15.480309c0 1.0681152E-4 -8.392334E-5 1.9073486E-4 -1.8310547E-4 1.9073486E-4l-22.015564 -1.9073486E-4l0 0c-1.02996826E-4 0 -1.8692017E-4 -7.6293945E-5 -1.8692017E-4 -1.8310547E-4l1.8692017E-4 -15.480125l0 0c0 -6.079483 4.9283905 -11.007877 11.007874 -11.007877z" fill-rule="evenodd"/><path fill="#a4a4a4" d="m6.2834644 23.490835l0 0c0 -0.5711422 0.46300125 -1.0341415 1.0341415 -1.0341415l85.36479 0c0.2742691 0 0.53730774 0.108953476 0.73124695 0.30289268c0.19393921 0.19393921 0.3028946 0.45697594 0.3028946 0.73124886l0 4.1364403c0 0.5711403 -0.46300507 1.0341415 -1.0341415 1.0341415l-85.36479 0c-0.5711403 0 -1.0341415 -0.46300125 -1.0341415 -1.0341415z" fill-rule="evenodd"/><path stroke="#a4a4a4" stroke-width="11.417322834645669" stroke-linejoin="round" stroke-linecap="butt" d="m6.2834644 23.490835l0 0c0 -0.5711422 0.46300125 -1.0341415 1.0341415 -1.0341415l85.36479 0c0.2742691 0 0.53730774 0.108953476 0.73124695 0.30289268c0.19393921 0.19393921 0.3028946 0.45697594 0.3028946 0.73124886l0 4.1364403c0 0.5711403 -0.46300507 1.0341415 -1.0341415 1.0341415l-85.36479 0c-0.5711403 0 -1.0341415 -0.46300125 -1.0341415 -1.0341415z" fill-rule="evenodd"/><path fill="#a4a4a4" d="m17.149391 25.359581l32.850395 -15.118112l32.850395 15.118112z" fill-rule="evenodd"/><path stroke="#a4a4a4" stroke-width="11.417322834645669" stroke-linejoin="round" stroke-linecap="butt" d="m17.149391 25.359581l32.850395 -15.118112l32.850395 15.118112z" fill-rule="evenodd"/><path fill="#a4a4a4" d="m12.637794 30.396326l0 0c0.06088257 0 0.110238075 0.049354553 0.110238075 0.11023712l0 52.220474c0 0.02923584 -0.0116147995 0.057273865 -0.03228855 0.077949524c-0.020673752 0.02066803 -0.04871273 0.032287598 -0.077949524 0.032287598l-0.44094086 0c-0.060883522 0 -0.110238075 -0.049354553 -0.110238075 -0.11023712l0 -52.220474l0 0c0 -0.06088257 0.049354553 -0.11023712 0.110238075 -0.11023712z" fill-rule="evenodd"/><path stroke="#a4a4a4" stroke-width="8.0" stroke-linejoin="round" stroke-linecap="butt" d="m12.637794 30.396326l0 0c0.06088257 0 0.110238075 0.049354553 0.110238075 0.11023712l0 52.220474c0 0.02923584 -0.0116147995 0.057273865 -0.03228855 0.077949524c-0.020673752 0.02066803 -0.04871273 0.032287598 -0.077949524 0.032287598l-0.44094086 0c-0.060883522 0 -0.110238075 -0.049354553 -0.110238075 -0.11023712l0 -52.220474l0 0c0 -0.06088257 0.049354553 -0.11023712 0.110238075 -0.11023712z" fill-rule="evenodd"/><path fill="#a4a4a4" d="m6.5157356 82.59055l0 0c0 -0.15655518 0.12691402 -0.28347015 0.28347015 -0.28347015l11.181091 0c0.07518005 0 0.14728355 0.02986908 0.20044327 0.0830307c0.05316162 0.05316162 0.083026886 0.1252594 0.083026886 0.20043945l0 1.1338501c0 0.15655518 -0.12691307 0.28347015 -0.28347015 0.28347015l-11.181091 0c-0.15655613 0 -0.28347015 -0.12691498 -0.28347015 -0.28347015z" fill-rule="evenodd"/><path stroke="#a4a4a4" stroke-width="8.0" stroke-linejoin="round" stroke-linecap="butt" d="m6.5157356 82.59055l0 0c0 -0.15655518 0.12691402 -0.28347015 0.28347015 -0.28347015l11.181091 0c0.07518005 0 0.14728355 0.02986908 0.20044327 0.0830307c0.05316162 0.05316162 0.083026886 0.1252594 0.083026886 0.20043945l0 1.1338501c0 0.15655518 -0.12691307 0.28347015 -0.28347015 0.28347015l-11.181091 0c-0.15655613 0 -0.28347015 -0.12691498 -0.28347015 -0.28347015z" fill-rule="evenodd"/><path fill="#a4a4a4" d="m28.637793 30.396326l0 0c0.06088257 0 0.11023903 0.049354553 0.11023903 0.11023712l0 52.220474c0 0.02923584 -0.011613846 0.057273865 -0.032287598 0.077949524c-0.020673752 0.02066803 -0.048713684 0.032287598 -0.07795143 0.032287598l-0.44094086 0c-0.06088257 0 -0.11023712 -0.049354553 -0.11023712 -0.11023712l0 -52.220474l0 0c0 -0.06088257 0.049354553 -0.11023712 0.11023712 -0.11023712z" fill-rule="evenodd"/><path stroke="#a4a4a4" stroke-width="8.0" stroke-linejoin="round" stroke-linecap="butt" d="m28.637793 30.396326l0 0c0.06088257 0 0.11023903 0.049354553 0.11023903 0.11023712l0 52.220474c0 0.02923584 -0.011613846 0.057273865 -0.032287598 0.077949524c-0.020673752 0.02066803 -0.048713684 0.032287598 -0.07795143 0.032287598l-0.44094086 0c-0.06088257 0 -0.11023712 -0.049354553 -0.11023712 -0.11023712l0 -52.220474l0 0c0 -0.06088257 0.049354553 -0.11023712 0.11023712 -0.11023712z" fill-rule="evenodd"/><path fill="#a4a4a4" d="m22.543306 82.59055l0 0c0 -0.15655518 0.12691498 -0.28347015 0.28347015 -0.28347015l11.181093 0c0.07518005 0 0.14728165 0.02986908 0.20044327 0.0830307c0.05316162 0.05316162 0.083026886 0.1252594 0.083026886 0.20043945l0 1.1338501c0 0.15655518 -0.12691498 0.28347015 -0.28347015 0.28347015l-11.181093 0c-0.15655518 0 -0.28347015 -0.12691498 -0.28347015 -0.28347015z" fill-rule="evenodd"/><path stroke="#a4a4a4" stroke-width="8.0" stroke-linejoin="round" stroke-linecap="butt" d="m22.543306 82.59055l0 0c0 -0.15655518 0.12691498 -0.28347015 0.28347015 -0.28347015l11.181093 0c0.07518005 0 0.14728165 0.02986908 0.20044327 0.0830307c0.05316162 0.05316162 0.083026886 0.1252594 0.083026886 0.20043945l0 1.1338501c0 0.15655518 -0.12691498 0.28347015 -0.28347015 0.28347015l-11.181093 0c-0.15655518 0 -0.28347015 -0.12691498 -0.28347015 -0.28347015z" fill-rule="evenodd"/><path fill="#a4a4a4" d="m68.637794 30.396326l0 0c0.06088257 0 0.11023712 0.049354553 0.11023712 0.11023712l0 52.220474c0 0.02923584 -0.0116119385 0.057273865 -0.032287598 0.077949524c-0.02067566 0.02066803 -0.048713684 0.032287598 -0.077949524 0.032287598l-0.44094086 0c-0.06088257 0 -0.11023712 -0.049354553 -0.11023712 -0.11023712l0 -52.220474l0 0c0 -0.06088257 0.049354553 -0.11023712 0.11023712 -0.11023712z" fill-rule="evenodd"/><path stroke="#a4a4a4" stroke-width="8.0" stroke-linejoin="round" stroke-linecap="butt" d="m68.637794 30.396326l0 0c0.06088257 0 0.11023712 0.049354553 0.11023712 0.11023712l0 52.220474c0 0.02923584 -0.0116119385 0.057273865 -0.032287598 0.077949524c-0.02067566 0.02066803 -0.048713684 0.032287598 -0.077949524 0.032287598l-0.44094086 0c-0.06088257 0 -0.11023712 -0.049354553 -0.11023712 -0.11023712l0 -52.220474l0 0c0 -0.06088257 0.049354553 -0.11023712 0.11023712 -0.11023712z" fill-rule="evenodd"/><path fill="#a4a4a4" d="m62.54331 82.59055l0 0c0 -0.15655518 0.12691116 -0.28347015 0.28347015 -0.28347015l11.1810875 0c0.07518005 0 0.14728546 0.02986908 0.20044708 0.0830307c0.05316162 0.05316162 0.08302307 0.1252594 0.08302307 0.20043945l0 1.1338501c0 0.15655518 -0.12691498 0.28347015 -0.28347015 0.28347015l-11.1810875 0c-0.15655899 0 -0.28347015 -0.12691498 -0.28347015 -0.28347015z" fill-rule="evenodd"/><path stroke="#a4a4a4" stroke-width="8.0" stroke-linejoin="round" stroke-linecap="butt" d="m62.54331 82.59055l0 0c0 -0.15655518 0.12691116 -0.28347015 0.28347015 -0.28347015l11.1810875 0c0.07518005 0 0.14728546 0.02986908 0.20044708 0.0830307c0.05316162 0.05316162 0.08302307 0.1252594 0.08302307 0.20043945l0 1.1338501c0 0.15655518 -0.12691498 0.28347015 -0.28347015 0.28347015l-11.1810875 0c-0.15655899 0 -0.28347015 -0.12691498 -0.28347015 -0.28347015z" fill-rule="evenodd"/><path fill="#a4a4a4" d="m84.637794 30.396326l0 0c0.06088257 0 0.11023712 0.049354553 0.11023712 0.11023712l0 52.220474c0 0.02923584 -0.0116119385 0.057273865 -0.032287598 0.077949524c-0.02067566 0.02066803 -0.048713684 0.032287598 -0.077949524 0.032287598l-0.44094086 0c-0.06088257 0 -0.11023712 -0.049354553 -0.11023712 -0.11023712l0 -52.220474l0 0c0 -0.06088257 0.049354553 -0.11023712 0.11023712 -0.11023712z" fill-rule="evenodd"/><path stroke="#a4a4a4" stroke-width="8.0" stroke-linejoin="round" stroke-linecap="butt" d="m84.637794 30.396326l0 0c0.06088257 0 0.11023712 0.049354553 0.11023712 0.11023712l0 52.220474c0 0.02923584 -0.0116119385 0.057273865 -0.032287598 0.077949524c-0.02067566 0.02066803 -0.048713684 0.032287598 -0.077949524 0.032287598l-0.44094086 0c-0.06088257 0 -0.11023712 -0.049354553 -0.11023712 -0.11023712l0 -52.220474l0 0c0 -0.06088257 0.049354553 -0.11023712 0.11023712 -0.11023712z" fill-rule="evenodd"/><path fill="#a4a4a4" d="m78.50195 82.59055l0 0c0 -0.15655518 0.12691498 -0.28347015 0.28347015 -0.28347015l11.181091 0c0.07518005 0 0.14727783 0.02986908 0.20043945 0.0830307c0.05316162 0.05316162 0.0830307 0.1252594 0.0830307 0.20043945l0 1.1338501c0 0.15655518 -0.12691498 0.28347015 -0.28347015 0.28347015l-11.181091 0c-0.15655518 0 -0.28347015 -0.12691498 -0.28347015 -0.28347015z" fill-rule="evenodd"/><path stroke="#a4a4a4" stroke-width="8.0" stroke-linejoin="round" stroke-linecap="butt" d="m78.50195 82.59055l0 0c0 -0.15655518 0.12691498 -0.28347015 0.28347015 -0.28347015l11.181091 0c0.07518005 0 0.14727783 0.02986908 0.20043945 0.0830307c0.05316162 0.05316162 0.0830307 0.1252594 0.0830307 0.20043945l0 1.1338501c0 0.15655518 -0.12691498 0.28347015 -0.28347015 0.28347015l-11.181091 0c-0.15655518 0 -0.28347015 -0.12691498 -0.28347015 -0.28347015z" fill-rule="evenodd"/></g></svg>