<svg version="1.1" viewBox="0.0 0.0 100.0 100.0" fill="none" stroke="none" stroke-linecap="square" stroke-miterlimit="10" xmlns:xlink="http://www.w3.org/1999/xlink" xmlns="http://www.w3.org/2000/svg"><clipPath id="p.0"><path d="m0 0l100.0 0l0 100.0l-100.0 0l0 -100.0z" clip-rule="nonzero"/></clipPath><g clip-path="url(#p.0)"><path fill="#000000" fill-opacity="0.0" d="m0 0l100.0 0l0 100.0l-100.0 0z" fill-rule="evenodd"/><path fill="#000000" fill-opacity="0.0" d="m45.284603 76.77138l5.2126007 0l0 7.968979l-5.0866127 0" fill-rule="evenodd"/><path stroke="#a4a4a4" stroke-width="4.0" stroke-linejoin="round" stroke-linecap="butt" d="m45.284603 76.77138l5.2126007 0l0 7.968979l-5.0866127 0" fill-rule="evenodd"/><path fill="#cdcdcd" d="m65.13648 61.175854l21.07087 0l0 25.29134l-21.07087 0z" fill-rule="evenodd"/><path stroke="#cdcdcd" stroke-width="11.417322834645669" stroke-linejoin="round" stroke-linecap="butt" d="m65.13648 61.175854l21.07087 0l0 25.29134l-21.07087 0z" fill-rule="evenodd"/><path fill="#845ec2" d="m-41.377953 0l8.881889 0l0 8.881889l-8.881889 0z" fill-rule="evenodd"/><path fill="#ff9671" d="m-32.496063 0l8.881889 0l0 8.881889l-8.881889 0z" fill-rule="evenodd"/><path fill="#c34a36" d="m-41.377953 8.881889l8.881889 0l0 8.881889l-8.881889 0z" fill-rule="evenodd"/><path fill="#ff8066" d="m-32.496063 8.881889l8.881889 0l0 8.881889l-8.881889 0z" fill-rule="evenodd"/><path fill="#ff6f91" d="m-14.732284 0l8.881889 0l0 8.881889l-8.881889 0z" fill-rule="evenodd"/><path fill="#ffc75f" d="m-23.614174 0l8.88189 0l0 8.881889l-8.88189 0z" fill-rule="evenodd"/><path fill="#008f7a" d="m-59.14173 0l8.881889 0l0 8.881889l-8.881889 0z" fill-rule="evenodd"/><path fill="#4b4453" d="m-41.377953 17.763779l8.881889 0l0 8.881891l-8.881889 0z" fill-rule="evenodd"/><path fill="#b0a8b9" d="m-32.496063 17.763779l8.881889 0l0 8.881891l-8.881889 0z" fill-rule="evenodd"/><path fill="#27252a" d="m-50.259842 17.763779l8.881889 0l0 8.881891l-8.881889 0z" fill-rule="evenodd"/><path fill="#4e8397" d="m-50.259842 0l8.881889 0l0 8.881889l-8.881889 0z" fill-rule="evenodd"/><path fill="#ffffff" d="m69.81102 70.13552l10.834648 0l0 10.834648l-10.834648 0z" fill-rule="evenodd"/><path stroke="#ffffff" stroke-width="4.0" stroke-linejoin="round" stroke-linecap="butt" d="m69.81102 70.13552l10.834648 0l0 10.834648l-10.834648 0z" fill-rule="evenodd"/><path fill="#ffffff" d="m-12.696319 39.144615c1.2580633 0.6394539 8.909443 0.51560974 10.270508 0c1.3610643 -0.51560974 -2.104122 -1.6498299 -2.104122 -3.0936546c0 -1.4438286 2.4958885 -4.0016403 2.104122 -5.569309c-0.39176655 -1.5676708 -2.7801235 -3.836111 -4.4547215 -3.8367157c-1.6745982 -6.046295E-4 -5.0772595 2.3892632 -5.5928693 3.8330898c-0.5156088 1.4438286 2.5363646 3.3854427 2.4992113 4.829874c-0.03715229 1.4444351 -3.9801912 3.1972656 -2.722128 3.8367157z" fill-rule="evenodd"/><path stroke="#ffffff" stroke-width="4.0" stroke-linejoin="round" stroke-linecap="butt" d="m-12.696319 39.144615c1.2580633 0.6394539 8.909443 0.51560974 10.270508 0c1.3610643 -0.51560974 -2.104122 -1.6498299 -2.104122 -3.0936546c0 -1.4438286 2.4958885 -4.0016403 2.104122 -5.569309c-0.39176655 -1.5676708 -2.7801235 -3.836111 -4.4547215 -3.8367157c-1.6745982 -6.046295E-4 -5.0772595 2.3892632 -5.5928693 3.8330898c-0.5156088 1.4438286 2.5363646 3.3854427 2.4992113 4.829874c-0.03715229 1.4444351 -3.9801912 3.1972656 -2.722128 3.8367157z" fill-rule="evenodd"/><path fill="#ffffff" d="m-7.5275593 42.637062l0 0c0 -0.95671463 0.7755699 -1.7322845 1.7322836 -1.7322845l0 0c0.45943022 0 0.9000435 0.18250656 1.2249093 0.5073738c0.3248663 0.32486725 0.5073743 0.76548004 0.5073743 1.2249107l0 0c0 0.95671463 -0.7755699 1.7322845 -1.7322836 1.7322845l0 0c-0.9567137 0 -1.7322836 -0.7755699 -1.7322836 -1.7322845z" fill-rule="evenodd"/><path stroke="#ffffff" stroke-width="2.0" stroke-linejoin="round" stroke-linecap="butt" d="m-7.5275593 42.637062l0 0c0 -0.95671463 0.7755699 -1.7322845 1.7322836 -1.7322845l0 0c0.45943022 0 0.9000435 0.18250656 1.2249093 0.5073738c0.3248663 0.32486725 0.5073743 0.76548004 0.5073743 1.2249107l0 0c0 0.95671463 -0.7755699 1.7322845 -1.7322836 1.7322845l0 0c-0.9567137 0 -1.7322836 -0.7755699 -1.7322836 -1.7322845z" fill-rule="evenodd"/><path fill="#a4a4a4" d="m9.086615 46.030674l81.82677 0l0 7.968502l-81.82677 0z" fill-rule="evenodd"/><path stroke="#a4a4a4" stroke-width="11.417322834645669" stroke-linejoin="round" stroke-linecap="butt" d="m9.086615 46.030674l81.82677 0l0 7.968502l-81.82677 0z" fill-rule="evenodd"/><path fill="#a4a4a4" d="m9.086615 94.84902l81.82677 0l0 -0.88188934l-81.82677 0z" fill-rule="evenodd"/><path stroke="#a4a4a4" stroke-width="8.0" stroke-linejoin="round" stroke-linecap="butt" d="m9.086615 94.84902l81.82677 0l0 -0.88188934l-81.82677 0z" fill-rule="evenodd"/><path fill="#a4a4a4" d="m18.112862 48.63489l0.25196838 0l0 43.212597l-0.25196838 0z" fill-rule="evenodd"/><path stroke="#a4a4a4" stroke-width="8.0" stroke-linejoin="round" stroke-linecap="butt" d="m18.112862 48.63489l0.25196838 0l0 43.212597l-0.25196838 0z" fill-rule="evenodd"/><path fill="#a4a4a4" d="m42.627296 73.821526l-6.015747 0l0 18.960625l6.015747 0z" fill-rule="evenodd"/><path stroke="#a4a4a4" stroke-width="8.0" stroke-linejoin="round" stroke-linecap="butt" d="m42.627296 73.821526l-6.015747 0l0 18.960625l6.015747 0z" fill-rule="evenodd"/><path fill="#ffffff" d="m37.39895 74.72179l4.4409447 0l0 4.3149567l-4.4409447 0z" fill-rule="evenodd"/><path stroke="#ffffff" stroke-width="4.0" stroke-linejoin="round" stroke-linecap="butt" d="m37.39895 74.72179l4.4409447 0l0 4.3149567l-4.4409447 0z" fill-rule="evenodd"/></g></svg>