<svg version="1.1" viewBox="0.0 0.0 100.0 100.0" fill="none" stroke="none" stroke-linecap="square" stroke-miterlimit="10" xmlns:xlink="http://www.w3.org/1999/xlink" xmlns="http://www.w3.org/2000/svg"><clipPath id="p.0"><path d="m0 0l100.0 0l0 100.0l-100.0 0l0 -100.0z" clip-rule="nonzero"/></clipPath><g clip-path="url(#p.0)"><path fill="#000000" fill-opacity="0.0" d="m0 0l100.0 0l0 100.0l-100.0 0z" fill-rule="evenodd"/><path fill="#a4a4a4" d="m19.727034 14.267716l8.188976 0l0 22.204727l-8.188976 0z" fill-rule="evenodd"/><path stroke="#a4a4a4" stroke-width="4.0" stroke-linejoin="round" stroke-linecap="butt" d="m19.727034 14.267716l8.188976 0l0 22.204727l-8.188976 0z" fill-rule="evenodd"/><path fill="#cdcdcd" d="m17.120735 33.97638l64.40945 0l0 41.32283l-64.40945 0z" fill-rule="evenodd"/><path stroke="#cdcdcd" stroke-width="11.417322834645669" stroke-linejoin="round" stroke-linecap="butt" d="m17.120735 33.97638l64.40945 0l0 41.32283l-64.40945 0z" fill-rule="evenodd"/><path fill="#845ec2" d="m-41.377953 0l8.881889 0l0 8.881889l-8.881889 0z" fill-rule="evenodd"/><path fill="#ff9671" d="m-32.496063 0l8.881889 0l0 8.881889l-8.881889 0z" fill-rule="evenodd"/><path fill="#c34a36" d="m-41.377953 8.881889l8.881889 0l0 8.881889l-8.881889 0z" fill-rule="evenodd"/><path fill="#ff8066" d="m-32.496063 8.881889l8.881889 0l0 8.881889l-8.881889 0z" fill-rule="evenodd"/><path fill="#ff6f91" d="m-14.732284 0l8.881889 0l0 8.881889l-8.881889 0z" fill-rule="evenodd"/><path fill="#ffc75f" d="m-23.614174 0l8.88189 0l0 8.881889l-8.88189 0z" fill-rule="evenodd"/><path fill="#008f7a" d="m-59.14173 0l8.881889 0l0 8.881889l-8.881889 0z" fill-rule="evenodd"/><path fill="#4b4453" d="m-41.377953 17.763779l8.881889 0l0 8.881891l-8.881889 0z" fill-rule="evenodd"/><path fill="#b0a8b9" d="m-32.496063 17.763779l8.881889 0l0 8.881891l-8.881889 0z" fill-rule="evenodd"/><path fill="#27252a" d="m-50.259842 17.763779l8.881889 0l0 8.881891l-8.881889 0z" fill-rule="evenodd"/><path fill="#4e8397" d="m-50.259842 0l8.881889 0l0 8.881889l-8.881889 0z" fill-rule="evenodd"/><path fill="#ffffff" d="m49.326107 54.65068l0 0l0 0c2.5185127 0 4.933876 1.0004768 6.714733 2.781334c1.7808571 1.7808571 2.78133 4.1962166 2.78133 6.7147293l0 16.992126c0 9.1552734E-5 -6.866455E-5 1.6021729E-4 -1.5640259E-4 1.6021729E-4l-18.99197 -1.6021729E-4l0 0c-8.773804E-5 0 -1.5640259E-4 -6.866455E-5 -1.5640259E-4 -1.6021729E-4l1.5640259E-4 -16.991966l0 0c0 -5.2445297 4.2515335 -9.496063 9.496063 -9.496063z" fill-rule="evenodd"/><path fill="#ffffff" d="m74.00041 39.53319l0 0l0 0c1.43676 0 2.8146744 0.570755 3.8306198 1.5867004c1.0159454 1.0159416 1.5867004 2.3938599 1.5867004 3.8306236l0 9.700787c0 4.9591064E-5 -3.8146973E-5 9.1552734E-5 -9.1552734E-5 9.1552734E-5l-10.834557 -9.1552734E-5l0 0c-4.5776367E-5 0 -9.1552734E-5 -3.8146973E-5 -9.1552734E-5 -8.773804E-5l9.1552734E-5 -9.700699l0 0c0 -2.9919052 2.4254227 -5.417324 5.417328 -5.417324z" fill-rule="evenodd"/><path stroke="#ffffff" stroke-width="3.0" stroke-linejoin="round" stroke-linecap="butt" d="m74.00041 39.53319l0 0l0 0c1.43676 0 2.8146744 0.570755 3.8306198 1.5867004c1.0159454 1.0159416 1.5867004 2.3938599 1.5867004 3.8306236l0 9.700787c0 4.9591064E-5 -3.8146973E-5 9.1552734E-5 -9.1552734E-5 9.1552734E-5l-10.834557 -9.1552734E-5l0 0c-4.5776367E-5 0 -9.1552734E-5 -3.8146973E-5 -9.1552734E-5 -8.773804E-5l9.1552734E-5 -9.700699l0 0c0 -2.9919052 2.4254227 -5.417324 5.417328 -5.417324z" fill-rule="evenodd"/><path fill="#ffffff" d="m26.00041 39.53319l0 0l0 0c1.4367619 0 2.81468 0.570755 3.8306255 1.5867004c1.0159435 1.0159416 1.5866966 2.3938599 1.5866966 3.8306236l0 9.700787c0 4.9591064E-5 -4.005432E-5 9.1552734E-5 -8.9645386E-5 9.1552734E-5l-10.834557 -9.1552734E-5l0 0c-4.9591064E-5 0 -8.9645386E-5 -3.8146973E-5 -8.9645386E-5 -8.773804E-5l8.9645386E-5 -9.700699l0 0c0 -2.9919052 2.4254189 -5.417324 5.417324 -5.417324z" fill-rule="evenodd"/><path stroke="#ffffff" stroke-width="3.0" stroke-linejoin="round" stroke-linecap="butt" d="m26.00041 39.53319l0 0l0 0c1.4367619 0 2.81468 0.570755 3.8306255 1.5867004c1.0159435 1.0159416 1.5866966 2.3938599 1.5866966 3.8306236l0 9.700787c0 4.9591064E-5 -4.005432E-5 9.1552734E-5 -8.9645386E-5 9.1552734E-5l-10.834557 -9.1552734E-5l0 0c-4.9591064E-5 0 -8.9645386E-5 -3.8146973E-5 -8.9645386E-5 -8.773804E-5l8.9645386E-5 -9.700699l0 0c0 -2.9919052 2.4254189 -5.417324 5.417324 -5.417324z" fill-rule="evenodd"/><path fill="#a4a4a4" d="m18.120735 10.598425l11.401575 0l0 5.44882l-11.401575 0z" fill-rule="evenodd"/><path stroke="#a4a4a4" stroke-width="4.0" stroke-linejoin="round" stroke-linecap="butt" d="m18.120735 10.598425l11.401575 0l0 5.44882l-11.401575 0z" fill-rule="evenodd"/><path fill="#a4a4a4" d="m13.522309 29.0071l41.813858 -8.881889l29.272758 8.881889z" fill-rule="evenodd"/><path stroke="#a4a4a4" stroke-width="11.417322834645669" stroke-linejoin="round" stroke-linecap="butt" d="m13.522309 29.0071l41.813858 -8.881889l29.272758 8.881889z" fill-rule="evenodd"/></g></svg>