<svg version="1.1" viewBox="0.0 0.0 100.0 100.0" fill="none" stroke="none" stroke-linecap="square" stroke-miterlimit="10" xmlns:xlink="http://www.w3.org/1999/xlink" xmlns="http://www.w3.org/2000/svg"><clipPath id="p.0"><path d="m0 0l100.0 0l0 100.0l-100.0 0l0 -100.0z" clip-rule="nonzero"/></clipPath><g clip-path="url(#p.0)"><path fill="#000000" fill-opacity="0.0" d="m0 0l100.0 0l0 100.0l-100.0 0z" fill-rule="evenodd"/><path fill="#a4a4a4" d="m31.149607 49.47123l0 0c0 -11.115276 9.01071 -20.125986 20.125982 -20.125986l0 0c5.3377457 0 10.456867 2.120411 14.231224 5.894766c3.774353 3.774353 5.89476 8.893475 5.89476 14.23122l0 0c0 11.1152725 -9.010708 20.125984 -20.125984 20.125984l0 0c-11.1152725 0 -20.125982 -9.010712 -20.125982 -20.125984z" fill-rule="evenodd"/><path stroke="#a4a4a4" stroke-width="10.585301837270341" stroke-linejoin="round" stroke-linecap="butt" d="m31.149607 49.47123l0 0c0 -11.115276 9.01071 -20.125986 20.125982 -20.125986l0 0c5.3377457 0 10.456867 2.120411 14.231224 5.894766c3.774353 3.774353 5.89476 8.893475 5.89476 14.23122l0 0c0 11.1152725 -9.010708 20.125984 -20.125984 20.125984l0 0c-11.1152725 0 -20.125982 -9.010712 -20.125982 -20.125984z" fill-rule="evenodd"/><path fill="#cdcdcd" d="m13.795276 61.175007l72.409454 0l0 25.29134l-72.409454 0z" fill-rule="evenodd"/><path stroke="#cdcdcd" stroke-width="11.417322834645669" stroke-linejoin="round" stroke-linecap="butt" d="m13.795276 61.175007l72.409454 0l0 25.29134l-72.409454 0z" fill-rule="evenodd"/><path fill="#845ec2" d="m-41.377953 0l8.881889 0l0 8.881889l-8.881889 0z" fill-rule="evenodd"/><path fill="#ff9671" d="m-32.496063 0l8.881889 0l0 8.881889l-8.881889 0z" fill-rule="evenodd"/><path fill="#c34a36" d="m-41.377953 8.881889l8.881889 0l0 8.881889l-8.881889 0z" fill-rule="evenodd"/><path fill="#ff8066" d="m-32.496063 8.881889l8.881889 0l0 8.881889l-8.881889 0z" fill-rule="evenodd"/><path fill="#ff6f91" d="m-14.732284 0l8.881889 0l0 8.881889l-8.881889 0z" fill-rule="evenodd"/><path fill="#ffc75f" d="m-23.614174 0l8.88189 0l0 8.881889l-8.88189 0z" fill-rule="evenodd"/><path fill="#008f7a" d="m-59.14173 0l8.881889 0l0 8.881889l-8.881889 0z" fill-rule="evenodd"/><path fill="#4b4453" d="m-41.377953 17.763779l8.881889 0l0 8.881891l-8.881889 0z" fill-rule="evenodd"/><path fill="#b0a8b9" d="m-32.496063 17.763779l8.881889 0l0 8.881891l-8.881889 0z" fill-rule="evenodd"/><path fill="#27252a" d="m-50.259842 17.763779l8.881889 0l0 8.881891l-8.881889 0z" fill-rule="evenodd"/><path fill="#4e8397" d="m-50.259842 0l8.881889 0l0 8.881889l-8.881889 0z" fill-rule="evenodd"/><path fill="#ffffff" d="m62.43286 38.594044l0 0l0 0c1.3323479 0 2.6101227 0.529274 3.5522385 1.471386c0.94210815 0.94211197 1.4713821 2.2198906 1.4713821 3.5522346l0 6.692917c0 4.5776367E-5 -3.8146973E-5 8.392334E-5 -8.392334E-5 8.392334E-5l-10.047157 -8.392334E-5l0 0c-4.5776367E-5 0 -8.392334E-5 -3.8146973E-5 -8.392334E-5 -8.392334E-5l8.392334E-5 -6.692833l0 0c0 -2.7744675 2.2491493 -5.0236206 5.0236206 -5.0236206z" fill-rule="evenodd"/><path stroke="#ffffff" stroke-width="2.7821522309711284" stroke-linejoin="round" stroke-linecap="butt" d="m62.43286 38.594044l0 0l0 0c1.3323479 0 2.6101227 0.529274 3.5522385 1.471386c0.94210815 0.94211197 1.4713821 2.2198906 1.4713821 3.5522346l0 6.692917c0 4.5776367E-5 -3.8146973E-5 8.392334E-5 -8.392334E-5 8.392334E-5l-10.047157 -8.392334E-5l0 0c-4.5776367E-5 0 -8.392334E-5 -3.8146973E-5 -8.392334E-5 -8.392334E-5l8.392334E-5 -6.692833l0 0c0 -2.7744675 2.2491493 -5.0236206 5.0236206 -5.0236206z" fill-rule="evenodd"/><path fill="#ffffff" d="m19.35433 70.13552l10.834646 0l0 10.834648l-10.834646 0z" fill-rule="evenodd"/><path stroke="#ffffff" stroke-width="4.0" stroke-linejoin="round" stroke-linecap="butt" d="m19.35433 70.13552l10.834646 0l0 10.834648l-10.834646 0z" fill-rule="evenodd"/><path fill="#ffffff" d="m69.81102 70.13552l10.834648 0l0 10.834648l-10.834648 0z" fill-rule="evenodd"/><path stroke="#ffffff" stroke-width="4.0" stroke-linejoin="round" stroke-linecap="butt" d="m69.81102 70.13552l10.834648 0l0 10.834648l-10.834648 0z" fill-rule="evenodd"/><path fill="#ffffff" d="m-12.696319 39.144615c1.2580633 0.6394539 8.909443 0.51560974 10.270508 0c1.3610643 -0.51560974 -2.104122 -1.6498299 -2.104122 -3.0936546c0 -1.4438286 2.4958885 -4.0016403 2.104122 -5.569309c-0.39176655 -1.5676708 -2.7801235 -3.836111 -4.4547215 -3.8367157c-1.6745982 -6.046295E-4 -5.0772595 2.3892632 -5.5928693 3.8330898c-0.5156088 1.4438286 2.5363646 3.3854427 2.4992113 4.829874c-0.03715229 1.4444351 -3.9801912 3.1972656 -2.722128 3.8367157z" fill-rule="evenodd"/><path stroke="#ffffff" stroke-width="4.0" stroke-linejoin="round" stroke-linecap="butt" d="m-12.696319 39.144615c1.2580633 0.6394539 8.909443 0.51560974 10.270508 0c1.3610643 -0.51560974 -2.104122 -1.6498299 -2.104122 -3.0936546c0 -1.4438286 2.4958885 -4.0016403 2.104122 -5.569309c-0.39176655 -1.5676708 -2.7801235 -3.836111 -4.4547215 -3.8367157c-1.6745982 -6.046295E-4 -5.0772595 2.3892632 -5.5928693 3.8330898c-0.5156088 1.4438286 2.5363646 3.3854427 2.4992113 4.829874c-0.03715229 1.4444351 -3.9801912 3.1972656 -2.722128 3.8367157z" fill-rule="evenodd"/><path fill="#ffffff" d="m-7.5275593 42.637062l0 0c0 -0.95671463 0.7755699 -1.7322845 1.7322836 -1.7322845l0 0c0.45943022 0 0.9000435 0.18250656 1.2249093 0.5073738c0.3248663 0.32486725 0.5073743 0.76548004 0.5073743 1.2249107l0 0c0 0.95671463 -0.7755699 1.7322845 -1.7322836 1.7322845l0 0c-0.9567137 0 -1.7322836 -0.7755699 -1.7322836 -1.7322845z" fill-rule="evenodd"/><path stroke="#ffffff" stroke-width="2.0" stroke-linejoin="round" stroke-linecap="butt" d="m-7.5275593 42.637062l0 0c0 -0.95671463 0.7755699 -1.7322845 1.7322836 -1.7322845l0 0c0.45943022 0 0.9000435 0.18250656 1.2249093 0.5073738c0.3248663 0.32486725 0.5073743 0.76548004 0.5073743 1.2249107l0 0c0 0.95671463 -0.7755699 1.7322845 -1.7322836 1.7322845l0 0c-0.9567137 0 -1.7322836 -0.7755699 -1.7322836 -1.7322845z" fill-rule="evenodd"/><path fill="#ffffff" d="m51.27551 68.2763l0 0l0 0c2.2637367 0 4.434757 0.8992615 6.0354614 2.4999695c1.6007042 1.6007004 2.4999695 3.771721 2.4999695 6.0354614l0 15.307083c0 8.392334E-5 -6.484985E-5 1.449585E-4 -1.411438E-4 1.449585E-4l-17.070724 -1.449585E-4l0 0c-8.010864E-5 0 -1.411438E-4 -6.1035156E-5 -1.411438E-4 -1.373291E-4l1.411438E-4 -15.306946l0 0c0 -4.7139893 3.8214455 -8.535431 8.535435 -8.535431z" fill-rule="evenodd"/><path fill="#a4a4a4" d="m40.829094 14.33158l9.259823 3.0075083l0 -9.732499l0 9.732499l9.259823 -3.0075083l-9.259823 3.0075083l5.722885 7.8737564l-5.722885 -7.8737564l-5.722885 7.8737564l5.722885 -7.8737564z" fill-rule="evenodd"/><path stroke="#a4a4a4" stroke-width="10.585301837270341" stroke-linejoin="round" stroke-linecap="butt" d="m40.829094 14.33158l9.259823 3.0075083l0 -9.732499l0 9.732499l9.259823 -3.0075083l-9.259823 3.0075083l5.722885 7.8737564l-5.722885 -7.8737564l-5.722885 7.8737564l5.722885 -7.8737564z" fill-rule="evenodd"/><path fill="#a4a4a4" d="m9.086615 50.780933l81.82677 0l0 3.2126007l-81.82677 0z" fill-rule="evenodd"/><path stroke="#a4a4a4" stroke-width="11.417322834645669" stroke-linejoin="round" stroke-linecap="butt" d="m9.086615 50.780933l81.82677 0l0 3.2126007l-81.82677 0z" fill-rule="evenodd"/><path fill="#a4a4a4" d="m9.086615 94.84902l81.82677 0l0 -0.88188934l-81.82677 0z" fill-rule="evenodd"/><path stroke="#a4a4a4" stroke-width="8.0" stroke-linejoin="round" stroke-linecap="butt" d="m9.086615 94.84902l81.82677 0l0 -0.88188934l-81.82677 0z" fill-rule="evenodd"/></g></svg>