<svg version="1.1" viewBox="0.0 0.0 50.0 100.0" fill="none" stroke="none" stroke-linecap="square" stroke-miterlimit="10" xmlns:xlink="http://www.w3.org/1999/xlink" xmlns="http://www.w3.org/2000/svg"><clipPath id="p.0"><path d="m0 0l50.0 0l0 100.0l-50.0 0l0 -100.0z" clip-rule="nonzero"/></clipPath><g clip-path="url(#p.0)"><path fill="#000000" fill-opacity="0.0" d="m0 0l50.0 0l0 100.0l-50.0 0z" fill-rule="evenodd"/><path fill="#ff9671" d="m4.905512 6.6929135l0 0c0 -1.8501282E-4 1.4972687E-4 -3.3521652E-4 3.3473969E-4 -3.3521652E-4l40.188644 3.3521652E-4c8.773804E-5 0 1.7166138E-4 3.528595E-5 2.3651123E-4 9.775162E-5c6.1035156E-5 6.2942505E-5 9.536743E-5 1.4829636E-4 9.536743E-5 2.3698807E-4l-3.3187866E-4 86.61384c0 1.9073486E-4 -1.5258789E-4 3.3569336E-4 -3.3569336E-4 3.3569336E-4l-40.188644 -3.3569336E-4l0 0c-1.8501282E-4 0 -3.3473969E-4 -1.449585E-4 -3.3473969E-4 -3.2806396E-4z" fill-rule="evenodd"/><path stroke="#c34a36" stroke-width="8.0" stroke-linejoin="round" stroke-linecap="butt" d="m4.905512 6.6929135l0 0c0 -1.8501282E-4 1.4972687E-4 -3.3521652E-4 3.3473969E-4 -3.3521652E-4l40.188644 3.3521652E-4c8.773804E-5 0 1.7166138E-4 3.528595E-5 2.3651123E-4 9.775162E-5c6.1035156E-5 6.2942505E-5 9.536743E-5 1.4829636E-4 9.536743E-5 2.3698807E-4l-3.3187866E-4 86.61384c0 1.9073486E-4 -1.5258789E-4 3.3569336E-4 -3.3569336E-4 3.3569336E-4l-40.188644 -3.3569336E-4l0 0c-1.8501282E-4 0 -3.3473969E-4 -1.449585E-4 -3.3473969E-4 -3.2806396E-4z" fill-rule="evenodd"/><path fill="#845ec2" d="m-41.377953 0l8.881889 0l0 8.881889l-8.881889 0z" fill-rule="evenodd"/><path fill="#ff9671" d="m-32.496063 0l8.881889 0l0 8.881889l-8.881889 0z" fill-rule="evenodd"/><path fill="#c34a36" d="m-41.377953 8.881889l8.881889 0l0 8.881889l-8.881889 0z" fill-rule="evenodd"/><path fill="#ff8066" d="m-32.496063 8.881889l8.881889 0l0 8.881889l-8.881889 0z" fill-rule="evenodd"/><path fill="#ff6f91" d="m-14.732284 0l8.881889 0l0 8.881889l-8.881889 0z" fill-rule="evenodd"/><path fill="#ffc75f" d="m-23.614174 0l8.88189 0l0 8.881889l-8.88189 0z" fill-rule="evenodd"/><path fill="#008f7a" d="m-59.14173 0l8.881889 0l0 8.881889l-8.881889 0z" fill-rule="evenodd"/><path fill="#4b4453" d="m-41.377953 17.763779l8.881889 0l0 8.881891l-8.881889 0z" fill-rule="evenodd"/><path fill="#b0a8b9" d="m-32.496063 17.763779l8.881889 0l0 8.881891l-8.881889 0z" fill-rule="evenodd"/><path fill="#27252a" d="m-50.259842 17.763779l8.881889 0l0 8.881891l-8.881889 0z" fill-rule="evenodd"/><path fill="#4e8397" d="m-50.259842 0l8.881889 0l0 8.881889l-8.881889 0z" fill-rule="evenodd"/><path fill="#000000" fill-opacity="0.0" d="m5.9553804 6.2047243l38.83465 86.86614" fill-rule="evenodd"/><path stroke="#c34a36" stroke-width="8.0" stroke-linejoin="round" stroke-linecap="butt" d="m5.9553804 6.2047243l38.83465 86.86614" fill-rule="evenodd"/><path fill="#000000" fill-opacity="0.0" d="m45.28609 7.4435697l-40.944885 86.74015" fill-rule="evenodd"/><path stroke="#c34a36" stroke-width="8.0" stroke-linejoin="round" stroke-linecap="butt" d="m45.28609 7.4435697l-40.944885 86.74015" fill-rule="evenodd"/></g></svg>