<svg version="1.1" viewBox="0.0 0.0 50.0 50.0" fill="none" stroke="none" stroke-linecap="square" stroke-miterlimit="10" xmlns:xlink="http://www.w3.org/1999/xlink" xmlns="http://www.w3.org/2000/svg"><clipPath id="p.0"><path d="m0 0l50.0 0l0 50.0l-50.0 0l0 -50.0z" clip-rule="nonzero"/></clipPath><g clip-path="url(#p.0)"><path fill="#000000" fill-opacity="0.0" d="m0 0l50.0 0l0 50.0l-50.0 0z" fill-rule="evenodd"/><path fill="#ffffff" d="m6.149606 25.0l0 0c0 -10.410785 8.43961 -18.850393 18.850393 -18.850393l0 0c4.9994354 0 9.794106 1.9860177 13.329243 5.521153c3.5351334 3.5351343 5.5211525 8.329805 5.5211525 13.329241l0 0c0 10.410786 -8.43961 18.850395 -18.850395 18.850395l0 0c-10.410785 0 -18.850393 -8.43961 -18.850393 -18.850395z" fill-rule="evenodd"/><path stroke="#efefef" stroke-width="8.0" stroke-linejoin="round" stroke-linecap="butt" d="m6.149606 25.0l0 0c0 -10.410785 8.43961 -18.850393 18.850393 -18.850393l0 0c4.9994354 0 9.794106 1.9860177 13.329243 5.521153c3.5351334 3.5351343 5.5211525 8.329805 5.5211525 13.329241l0 0c0 10.410786 -8.43961 18.850395 -18.850395 18.850395l0 0c-10.410785 0 -18.850393 -8.43961 -18.850393 -18.850395z" fill-rule="evenodd"/></g></svg>