<svg version="1.1" viewBox="0.0 0.0 100.0 100.0" fill="none" stroke="none" stroke-linecap="square" stroke-miterlimit="10" xmlns:xlink="http://www.w3.org/1999/xlink" xmlns="http://www.w3.org/2000/svg"><clipPath id="p.0"><path d="m0 0l100.0 0l0 100.0l-100.0 0l0 -100.0z" clip-rule="nonzero"/></clipPath><g clip-path="url(#p.0)"><path fill="#000000" fill-opacity="0.0" d="m0 0l100.0 0l0 100.0l-100.0 0z" fill-rule="evenodd"/><path fill="#cdcdcd" d="m16.377953 33.357063l64.15748 0l0 41.32283l-64.15748 0z" fill-rule="evenodd"/><path stroke="#cdcdcd" stroke-width="11.417322834645669" stroke-linejoin="round" stroke-linecap="butt" d="m16.377953 33.357063l64.15748 0l0 41.32283l-64.15748 0z" fill-rule="evenodd"/><path fill="#845ec2" d="m-41.377953 0l8.881889 0l0 8.881889l-8.881889 0z" fill-rule="evenodd"/><path fill="#ff9671" d="m-32.496063 0l8.881889 0l0 8.881889l-8.881889 0z" fill-rule="evenodd"/><path fill="#c34a36" d="m-41.377953 8.881889l8.881889 0l0 8.881889l-8.881889 0z" fill-rule="evenodd"/><path fill="#ff8066" d="m-32.496063 8.881889l8.881889 0l0 8.881889l-8.881889 0z" fill-rule="evenodd"/><path fill="#ff6f91" d="m-14.732284 0l8.881889 0l0 8.881889l-8.881889 0z" fill-rule="evenodd"/><path fill="#ffc75f" d="m-23.614174 0l8.88189 0l0 8.881889l-8.88189 0z" fill-rule="evenodd"/><path fill="#008f7a" d="m-59.14173 0l8.881889 0l0 8.881889l-8.881889 0z" fill-rule="evenodd"/><path fill="#4b4453" d="m-41.377953 17.763779l8.881889 0l0 8.881891l-8.881889 0z" fill-rule="evenodd"/><path fill="#b0a8b9" d="m-32.496063 17.763779l8.881889 0l0 8.881891l-8.881889 0z" fill-rule="evenodd"/><path fill="#27252a" d="m-50.259842 17.763779l8.881889 0l0 8.881891l-8.881889 0z" fill-rule="evenodd"/><path fill="#4e8397" d="m-50.259842 0l8.881889 0l0 8.881889l-8.881889 0z" fill-rule="evenodd"/><path fill="#ffffff" d="m27.38366 54.010918l0 0l0 0c2.919468 0 5.719364 1.1597557 7.783741 3.2241325c2.0643768 2.0643768 3.2241325 4.864273 3.2241325 7.783741l0 15.480316c0 9.918213E-5 -8.392334E-5 1.8310547E-4 -1.8310547E-4 1.8310547E-4l-22.015566 -1.8310547E-4l0 0c-1.0108948E-4 0 -1.8310547E-4 -8.392334E-5 -1.8310547E-4 -1.8310547E-4l1.8310547E-4 -15.480133l0 0c0 -6.079479 4.9283943 -11.007874 11.007875 -11.007874z" fill-rule="evenodd"/><path fill="#a4a4a4" d="m17.134321 47.40292l0 0l0 0c-1.6664782 0 -3.2647028 -0.6620064 -4.443081 -1.8403854c-1.1783781 -1.178379 -1.8403835 -2.7766037 -1.8403835 -4.443081l0 -8.834644c0 -5.722046E-5 4.673004E-5 -1.0681152E-4 1.039505E-4 -1.0681152E-4l12.566825 1.0681152E-4l0 0c5.722046E-5 0 1.04904175E-4 4.5776367E-5 1.04904175E-4 1.02996826E-4l-1.04904175E-4 8.834541l0 0c0 3.4702606 -2.8132038 6.2834663 -6.2834644 6.2834663z" fill-rule="evenodd"/><path stroke="#a4a4a4" stroke-width="1.0" stroke-linejoin="round" stroke-linecap="butt" d="m17.134321 47.40292l0 0l0 0c-1.6664782 0 -3.2647028 -0.6620064 -4.443081 -1.8403854c-1.1783781 -1.178379 -1.8403835 -2.7766037 -1.8403835 -4.443081l0 -8.834644c0 -5.722046E-5 4.673004E-5 -1.0681152E-4 1.039505E-4 -1.0681152E-4l12.566825 1.0681152E-4l0 0c5.722046E-5 0 1.04904175E-4 4.5776367E-5 1.04904175E-4 1.02996826E-4l-1.04904175E-4 8.834541l0 0c0 3.4702606 -2.8132038 6.2834663 -6.2834644 6.2834663z" fill-rule="evenodd"/><path fill="#ffffff" d="m64.0472 59.25524l0 0c0 -2.6614037 2.1575012 -4.8188972 4.818901 -4.8188972l0 0l0 0c1.2780533 0 2.5037537 0.5077057 3.4074783 1.4114227c0.90371704 0.90372086 1.4114227 2.129425 1.4114227 3.4074745l0 4.629925c0 2.6614037 -2.1574936 4.8188972 -4.818901 4.8188972l0 0l0 0c-2.6613998 0 -4.818901 -2.1574936 -4.818901 -4.8188972z" fill-rule="evenodd"/><path fill="#a4a4a4" d="m15.566714 33.356956l32.85039 -15.118111l32.850395 15.118111z" fill-rule="evenodd"/><path stroke="#a4a4a4" stroke-width="11.417322834645669" stroke-linejoin="round" stroke-linecap="butt" d="m15.566714 33.356956l32.85039 -15.118111l32.850395 15.118111z" fill-rule="evenodd"/><path fill="#a4a4a4" d="m42.26818 47.40292l0 0l0 0c-1.666481 0 -3.2647057 -0.6620064 -4.443081 -1.8403854c-1.178379 -1.178379 -1.8403854 -2.7766037 -1.8403854 -4.443081l0 -8.834644c0 -5.722046E-5 4.5776367E-5 -1.0681152E-4 1.0681152E-4 -1.0681152E-4l12.566822 1.0681152E-4l0 0c5.722046E-5 0 1.0681152E-4 4.5776367E-5 1.0681152E-4 1.02996826E-4l-1.0681152E-4 8.834541l0 0c0 3.4702606 -2.813202 6.2834663 -6.2834625 6.2834663z" fill-rule="evenodd"/><path stroke="#a4a4a4" stroke-width="1.0" stroke-linejoin="round" stroke-linecap="butt" d="m42.26818 47.40292l0 0l0 0c-1.666481 0 -3.2647057 -0.6620064 -4.443081 -1.8403854c-1.178379 -1.178379 -1.8403854 -2.7766037 -1.8403854 -4.443081l0 -8.834644c0 -5.722046E-5 4.5776367E-5 -1.0681152E-4 1.0681152E-4 -1.0681152E-4l12.566822 1.0681152E-4l0 0c5.722046E-5 0 1.0681152E-4 4.5776367E-5 1.0681152E-4 1.02996826E-4l-1.0681152E-4 8.834541l0 0c0 3.4702606 -2.813202 6.2834663 -6.2834625 6.2834663z" fill-rule="evenodd"/><path fill="#a4a4a4" d="m54.83511 47.40292l0 0l0 0c-1.666481 0 -3.2647018 -0.6620064 -4.443081 -1.8403854c-1.178379 -1.178379 -1.8403854 -2.7766037 -1.8403854 -4.443081l0 -8.834644c0 -5.722046E-5 4.5776367E-5 -1.0681152E-4 1.0681152E-4 -1.0681152E-4l12.566822 1.0681152E-4l0 0c5.722046E-5 0 1.0681152E-4 4.5776367E-5 1.0681152E-4 1.02996826E-4l-1.0681152E-4 8.834541l0 0c0 3.4702606 -2.813202 6.2834663 -6.2834625 6.2834663z" fill-rule="evenodd"/><path stroke="#a4a4a4" stroke-width="1.0" stroke-linejoin="round" stroke-linecap="butt" d="m54.83511 47.40292l0 0l0 0c-1.666481 0 -3.2647018 -0.6620064 -4.443081 -1.8403854c-1.178379 -1.178379 -1.8403854 -2.7766037 -1.8403854 -4.443081l0 -8.834644c0 -5.722046E-5 4.5776367E-5 -1.0681152E-4 1.0681152E-4 -1.0681152E-4l12.566822 1.0681152E-4l0 0c5.722046E-5 0 1.0681152E-4 4.5776367E-5 1.0681152E-4 1.02996826E-4l-1.0681152E-4 8.834541l0 0c0 3.4702606 -2.813202 6.2834663 -6.2834625 6.2834663z" fill-rule="evenodd"/><path fill="#a4a4a4" d="m67.40204 47.40292l0 0l0 0c-1.666481 0 -3.2647018 -0.6620064 -4.443081 -1.8403854c-1.178379 -1.178379 -1.8403854 -2.7766037 -1.8403854 -4.443081l0 -8.834644c0 -5.722046E-5 4.5776367E-5 -1.0681152E-4 1.0681152E-4 -1.0681152E-4l12.566822 1.0681152E-4l0 0c6.1035156E-5 0 1.0681152E-4 4.5776367E-5 1.0681152E-4 1.02996826E-4l-1.0681152E-4 8.834541l0 0c0 3.4702606 -2.813202 6.2834663 -6.2834625 6.2834663z" fill-rule="evenodd"/><path stroke="#a4a4a4" stroke-width="1.0" stroke-linejoin="round" stroke-linecap="butt" d="m67.40204 47.40292l0 0l0 0c-1.666481 0 -3.2647018 -0.6620064 -4.443081 -1.8403854c-1.178379 -1.178379 -1.8403854 -2.7766037 -1.8403854 -4.443081l0 -8.834644c0 -5.722046E-5 4.5776367E-5 -1.0681152E-4 1.0681152E-4 -1.0681152E-4l12.566822 1.0681152E-4l0 0c6.1035156E-5 0 1.0681152E-4 4.5776367E-5 1.0681152E-4 1.02996826E-4l-1.0681152E-4 8.834541l0 0c0 3.4702606 -2.813202 6.2834663 -6.2834625 6.2834663z" fill-rule="evenodd"/><path fill="#a4a4a4" d="m79.96896 47.404125l0 0l0 0c-1.6664734 0 -3.2647018 -0.6620064 -4.443077 -1.8403854c-1.1783752 -1.178379 -1.8403854 -2.7766037 -1.8403854 -4.443081l0 -8.834644c0 -6.1035156E-5 4.5776367E-5 -1.0681152E-4 1.0681152E-4 -1.0681152E-4l12.566826 1.0681152E-4l0 0c5.340576E-5 0 9.918213E-5 4.5776367E-5 9.918213E-5 1.02996826E-4l-9.918213E-5 8.834541l0 0c0 3.4702606 -2.813202 6.2834663 -6.28347 6.2834663z" fill-rule="evenodd"/><path stroke="#a4a4a4" stroke-width="1.0" stroke-linejoin="round" stroke-linecap="butt" d="m79.96896 47.404125l0 0l0 0c-1.6664734 0 -3.2647018 -0.6620064 -4.443077 -1.8403854c-1.1783752 -1.178379 -1.8403854 -2.7766037 -1.8403854 -4.443081l0 -8.834644c0 -6.1035156E-5 4.5776367E-5 -1.0681152E-4 1.0681152E-4 -1.0681152E-4l12.566826 1.0681152E-4l0 0c5.340576E-5 0 9.918213E-5 4.5776367E-5 9.918213E-5 1.02996826E-4l-9.918213E-5 8.834541l0 0c0 3.4702606 -2.813202 6.2834663 -6.28347 6.2834663z" fill-rule="evenodd"/><path fill="#a4a4a4" d="m29.70125 47.40292l0 0l0 0c-1.6664791 0 -3.2647018 -0.6620064 -4.443081 -1.8403854c-1.1783772 -1.178379 -1.8403835 -2.7766037 -1.8403835 -4.443081l0 -8.834644c0 -5.722046E-5 4.7683716E-5 -1.0681152E-4 1.04904175E-4 -1.0681152E-4l12.566824 1.0681152E-4l0 0c5.722046E-5 0 1.0681152E-4 4.5776367E-5 1.0681152E-4 1.02996826E-4l-1.0681152E-4 8.834541l0 0c0 3.4702606 -2.813202 6.2834663 -6.2834644 6.2834663z" fill-rule="evenodd"/><path stroke="#a4a4a4" stroke-width="1.0" stroke-linejoin="round" stroke-linecap="butt" d="m29.70125 47.40292l0 0l0 0c-1.6664791 0 -3.2647018 -0.6620064 -4.443081 -1.8403854c-1.1783772 -1.178379 -1.8403835 -2.7766037 -1.8403835 -4.443081l0 -8.834644c0 -5.722046E-5 4.7683716E-5 -1.0681152E-4 1.04904175E-4 -1.0681152E-4l12.566824 1.0681152E-4l0 0c5.722046E-5 0 1.0681152E-4 4.5776367E-5 1.0681152E-4 1.02996826E-4l-1.0681152E-4 8.834541l0 0c0 3.4702606 -2.813202 6.2834663 -6.2834644 6.2834663z" fill-rule="evenodd"/><path fill="#ffffff" d="m45.181065 59.25524l0 0c0 -2.6614037 2.1574936 -4.8188972 4.8188972 -4.8188972l0 0l0 0c1.2780533 0 2.5037575 0.5077057 3.4074745 1.4114227c0.90372086 0.90372086 1.4114227 2.129425 1.4114227 3.4074745l0 4.629925c0 2.6614037 -2.1574936 4.8188972 -4.8188972 4.8188972l0 0l0 0c-2.6614037 0 -4.8188972 -2.1574936 -4.8188972 -4.8188972z" fill-rule="evenodd"/></g></svg>