<svg version="1.1" viewBox="0.0 0.0 100.0 100.0" fill="none" stroke="none" stroke-linecap="square" stroke-miterlimit="10" xmlns:xlink="http://www.w3.org/1999/xlink" xmlns="http://www.w3.org/2000/svg"><clipPath id="p.0"><path d="m0 0l100.0 0l0 100.0l-100.0 0l0 -100.0z" clip-rule="nonzero"/></clipPath><g clip-path="url(#p.0)"><path fill="#000000" fill-opacity="0.0" d="m0 0l100.0 0l0 100.0l-100.0 0z" fill-rule="evenodd"/><path fill="#b0a8b9" d="m5.4960628 0l89.00787 0l0 100.0l-89.00787 0z" fill-rule="evenodd"/><path fill="#845ec2" d="m-41.377953 0l8.881889 0l0 8.881889l-8.881889 0z" fill-rule="evenodd"/><path fill="#ff9671" d="m-32.496063 0l8.881889 0l0 8.881889l-8.881889 0z" fill-rule="evenodd"/><path fill="#c34a36" d="m-41.377953 8.881889l8.881889 0l0 8.881889l-8.881889 0z" fill-rule="evenodd"/><path fill="#ff8066" d="m-32.496063 8.881889l8.881889 0l0 8.881889l-8.881889 0z" fill-rule="evenodd"/><path fill="#ff6f91" d="m-14.732284 0l8.881889 0l0 8.881889l-8.881889 0z" fill-rule="evenodd"/><path fill="#ffc75f" d="m-23.614174 0l8.88189 0l0 8.881889l-8.88189 0z" fill-rule="evenodd"/><path fill="#008f7a" d="m-59.14173 0l8.881889 0l0 8.881889l-8.881889 0z" fill-rule="evenodd"/><path fill="#4b4453" d="m-41.377953 17.763779l8.881889 0l0 8.881891l-8.881889 0z" fill-rule="evenodd"/><path fill="#b0a8b9" d="m-32.496063 17.763779l8.881889 0l0 8.881891l-8.881889 0z" fill-rule="evenodd"/><path fill="#27252a" d="m-50.259842 17.763779l8.881889 0l0 8.881891l-8.881889 0z" fill-rule="evenodd"/><path fill="#4e8397" d="m-50.259842 0l8.881889 0l0 8.881889l-8.881889 0z" fill-rule="evenodd"/><path fill="#4b4453" d="m18.220472 0l63.55905 0l0 100.0l-63.55905 0z" fill-rule="evenodd"/><path fill="#000000" fill-opacity="0.0" d="m50.0 0l0 100.0" fill-rule="evenodd"/><path stroke="#b0a8b9" stroke-width="4.0" stroke-linejoin="round" stroke-linecap="butt" stroke-dasharray="16.0,12.0" d="m50.0 0l0 100.0" fill-rule="evenodd"/></g></svg>