<svg version="1.1" viewBox="0.0 0.0 200.0 200.0" fill="none" stroke="none" stroke-linecap="square" stroke-miterlimit="10" xmlns:xlink="http://www.w3.org/1999/xlink" xmlns="http://www.w3.org/2000/svg"><clipPath id="p.0"><path d="m0 0l200.0 0l0 200.0l-200.0 0l0 -200.0z" clip-rule="nonzero"/></clipPath><g clip-path="url(#p.0)"><path fill="#000000" fill-opacity="0.0" d="m0 0l200.0 0l0 200.0l-200.0 0z" fill-rule="evenodd"/><path fill="#b0a8b9" d="m77.33227 11.293975c-17.831623 4.577688 -41.606766 15.099252 -51.64993 29.514866c-10.043162 14.415615 -9.087084 44.954487 -8.609045 56.978825c0.4780407 12.02433 10.179384 8.813194 11.477282 15.167183c1.2978973 6.353981 -7.7891865 15.031677 -3.6898994 22.956726c4.099287 7.925049 22.888077 17.009964 28.285622 24.593552c5.397545 7.5835876 -3.8253975 15.783615 4.0996475 20.90799c7.925045 5.1243896 30.05975 9.906586 43.450634 9.838287c13.390884 -0.06828308 30.267517 -4.7138977 36.89467 -10.248032c6.6271515 -5.534134 -2.7341766 -15.578018 2.8682404 -22.956726c5.602417 -7.378723 25.895416 -15.098526 30.746277 -21.315567c4.8508453 -6.217041 -3.6223297 -8.403091 -1.641159 -15.986687c1.9811707 -7.5835876 13.1180725 -15.508995 13.528183 -29.514862c0.41011047 -14.005867 -2.6640778 -41.5392 -11.067535 -54.520336c-8.403442 -12.981136 -23.570984 -19.13061 -39.35315 -23.366478c-15.782166 -4.2358694 -37.50821 -6.6264277 -55.339836 -2.0487404z" fill-rule="evenodd"/><path stroke="#b0a8b9" stroke-width="9.913385826771654" stroke-linejoin="round" stroke-linecap="butt" d="m77.33227 11.293975c-17.831623 4.577688 -41.606766 15.099252 -51.64993 29.514866c-10.043162 14.415615 -9.087084 44.954487 -8.609045 56.978825c0.4780407 12.02433 10.179384 8.813194 11.477282 15.167183c1.2978973 6.353981 -7.7891865 15.031677 -3.6898994 22.956726c4.099287 7.925049 22.888077 17.009964 28.285622 24.593552c5.397545 7.5835876 -3.8253975 15.783615 4.0996475 20.90799c7.925045 5.1243896 30.05975 9.906586 43.450634 9.838287c13.390884 -0.06828308 30.267517 -4.7138977 36.89467 -10.248032c6.6271515 -5.534134 -2.7341766 -15.578018 2.8682404 -22.956726c5.602417 -7.378723 25.895416 -15.098526 30.746277 -21.315567c4.8508453 -6.217041 -3.6223297 -8.403091 -1.641159 -15.986687c1.9811707 -7.5835876 13.1180725 -15.508995 13.528183 -29.514862c0.41011047 -14.005867 -2.6640778 -41.5392 -11.067535 -54.520336c-8.403442 -12.981136 -23.570984 -19.13061 -39.35315 -23.366478c-15.782166 -4.2358694 -37.50821 -6.6264277 -55.339836 -2.0487404z" fill-rule="evenodd"/><path fill="#845ec2" d="m-20.688976 0l4.4409447 0l0 4.4409447l-4.4409447 0z" fill-rule="evenodd"/><path fill="#ff9671" d="m-16.248032 0l4.4409447 0l0 4.4409447l-4.4409447 0z" fill-rule="evenodd"/><path fill="#c34a36" d="m-20.688976 4.4409447l4.4409447 0l0 4.4409447l-4.4409447 0z" fill-rule="evenodd"/><path fill="#ff8066" d="m-16.248032 4.4409447l4.4409447 0l0 4.4409447l-4.4409447 0z" fill-rule="evenodd"/><path fill="#ff6f91" d="m-7.366142 0l4.4409447 0l0 4.4409447l-4.4409447 0z" fill-rule="evenodd"/><path fill="#ffc75f" d="m-11.807087 0l4.440945 0l0 4.4409447l-4.440945 0z" fill-rule="evenodd"/><path fill="#008f7a" d="m-29.570866 0l4.4409447 0l0 4.4409447l-4.4409447 0z" fill-rule="evenodd"/><path fill="#4b4453" d="m-20.688976 8.881889l4.4409447 0l0 4.4409456l-4.4409447 0z" fill-rule="evenodd"/><path fill="#b0a8b9" d="m-16.248032 8.881889l4.4409447 0l0 4.4409456l-4.4409447 0z" fill-rule="evenodd"/><path fill="#27252a" d="m-25.129921 8.881889l4.4409447 0l0 4.4409456l-4.4409447 0z" fill-rule="evenodd"/><path fill="#4e8397" d="m-25.129921 0l4.4409447 0l0 4.4409447l-4.4409447 0z" fill-rule="evenodd"/><path fill="#141415" d="m-17.129921 16.88189l4.4409447 0l0 4.4409447l-4.4409447 0z" fill-rule="evenodd"/><path fill="#000000" d="m86.3617 91.70442c3.1409302 4.5543823 3.5332336 13.5840225 -2.3563156 19.787575c-5.8895416 6.20356 -24.971634 18.847206 -32.98095 17.433754c-8.0093155 -1.4134598 -17.430847 -18.45449 -15.074947 -25.914497c2.3558998 -7.4600067 20.808315 -16.961075 29.210354 -18.84555c8.402031 -1.8844681 18.060936 2.9843369 21.201859 7.538719z" fill-rule="evenodd"/><path stroke="#000000" stroke-width="4.0" stroke-linejoin="round" stroke-linecap="butt" d="m86.3617 91.70442c3.1409302 4.5543823 3.5332336 13.5840225 -2.3563156 19.787575c-5.8895416 6.20356 -24.971634 18.847206 -32.98095 17.433754c-8.0093155 -1.4134598 -17.430847 -18.45449 -15.074947 -25.914497c2.3558998 -7.4600067 20.808315 -16.961075 29.210354 -18.84555c8.402031 -1.8844681 18.060936 2.9843369 21.201859 7.538719z" fill-rule="evenodd"/><path fill="#000000" d="m113.638145 91.70442c-3.1409302 4.5543823 -3.5332336 13.5840225 2.3563156 19.787575c5.8895416 6.20356 24.971634 18.847206 32.980957 17.433754c8.009308 -1.4134598 17.430847 -18.45449 15.074936 -25.914497c-2.355896 -7.4600067 -20.808304 -16.961075 -29.210342 -18.84555c-8.402039 -1.8844681 -18.060944 2.9843369 -21.201866 7.538719z" fill-rule="evenodd"/><path stroke="#000000" stroke-width="3.7874015748031495" stroke-linejoin="round" stroke-linecap="butt" d="m113.638145 91.70442c-3.1409302 4.5543823 -3.5332336 13.5840225 2.3563156 19.787575c5.8895416 6.20356 24.971634 18.847206 32.980957 17.433754c8.009308 -1.4134598 17.430847 -18.45449 15.074936 -25.914497c-2.355896 -7.4600067 -20.808304 -16.961075 -29.210342 -18.84555c-8.402039 -1.8844681 -18.060944 2.9843369 -21.201866 7.538719z" fill-rule="evenodd"/><path fill="#000000" d="m98.83911 129.1606c-3.2534103 -0.44436646 -7.2147064 9.01355 -8.770767 13.710693c-1.5560684 4.6971436 -1.7916107 13.647064 -0.5656128 14.472168c1.2259903 0.82510376 5.37558 -9.458252 7.9215927 -9.521545c2.5460129 -0.0632782 5.32708 9.522537 7.354492 9.1418c2.0274124 -0.3807373 5.799919 -6.792389 4.809967 -11.426239c-0.9899521 -4.63385 -7.496269 -15.93251 -10.749672 -16.376877z" fill-rule="evenodd"/><path stroke="#000000" stroke-width="12.0" stroke-linejoin="round" stroke-linecap="butt" d="m98.83911 129.1606c-3.2534103 -0.44436646 -7.2147064 9.01355 -8.770767 13.710693c-1.5560684 4.6971436 -1.7916107 13.647064 -0.5656128 14.472168c1.2259903 0.82510376 5.37558 -9.458252 7.9215927 -9.521545c2.5460129 -0.0632782 5.32708 9.522537 7.354492 9.1418c2.0274124 -0.3807373 5.799919 -6.792389 4.809967 -11.426239c-0.9899521 -4.63385 -7.496269 -15.93251 -10.749672 -16.376877z" fill-rule="evenodd"/></g></svg>